<svg width="41" height="41" viewBox="0 0 41 41" fill="none" xmlns="http://www.w3.org/2000/svg">
<path d="M20.5 0.000244141C9.17807 0.000244141 0 9.17831 0 20.5002C0 31.8221 9.17807 41.0002 20.5 41.0002C31.8218 41.0002 41 31.8221 41 20.5002C40.9999 9.17831 31.8217 0.000244141 20.5 0.000244141ZM15.0305 30.411H10.5296V15.8696H15.0305V30.411ZM12.7586 13.9653C11.2886 13.9653 10.097 12.7639 10.097 11.2822C10.097 9.80029 11.2888 8.59899 12.7586 8.59899C14.2284 8.59899 15.4201 9.80029 15.4201 11.2822C15.4202 12.764 14.2285 13.9653 12.7586 13.9653ZM31.8979 30.411H27.4188V22.778C27.4188 20.6845 26.6236 19.5159 24.9682 19.5159C23.1665 19.5159 22.2253 20.733 22.2253 22.778V30.411H17.9084V15.8696H22.2253V17.8281C22.2253 17.8281 23.5239 15.4261 26.6073 15.4261C29.6907 15.4261 31.898 17.3088 31.898 21.2036L31.8979 30.411Z" fill="url(#paint0_linear_807_86)"/>
<defs>
<linearGradient id="paint0_linear_807_86" x1="6.00429" y1="6.00454" x2="34.9956" y2="34.9959" gradientUnits="userSpaceOnUse">
<stop stop-color="#2489BE"/>
<stop offset="1" stop-color="#0575B3"/>
</linearGradient>
</defs>
</svg>
