<svg width="41" height="41" viewBox="0 0 41 41" fill="none" xmlns="http://www.w3.org/2000/svg">
<g clip-path="url(#clip0_807_90)">
<path d="M20.5 0C31.8263 0 41 9.17375 41 20.5C40.9989 24.7953 39.6509 28.982 37.1456 32.471C34.6403 35.96 31.104 38.5755 27.0344 39.9494C26.0094 40.1544 25.625 39.5138 25.625 38.9756C25.625 38.2837 25.6506 36.08 25.6506 33.3381C25.6506 31.4163 25.01 30.1862 24.2669 29.5456C28.8281 29.0331 33.62 27.2906 33.62 19.4237C33.62 17.1688 32.8256 15.3494 31.5188 13.9144C31.7238 13.4019 32.4413 11.3006 31.3138 8.48187C31.3138 8.48187 29.5969 7.91813 25.6763 10.5831C24.0363 10.1219 22.2938 9.89125 20.5513 9.89125C18.8088 9.89125 17.0663 10.1219 15.4263 10.5831C11.5056 7.94375 9.78875 8.48187 9.78875 8.48187C8.66125 11.3006 9.37875 13.4019 9.58375 13.9144C8.27688 15.3494 7.4825 17.1944 7.4825 19.4237C7.4825 27.265 12.2488 29.0331 16.81 29.5456C16.2206 30.0581 15.6825 30.955 15.5031 32.2875C14.3244 32.8256 11.3775 33.6969 9.5325 30.5962C9.14813 29.9812 7.995 28.4694 6.38063 28.495C4.66375 28.5206 5.68875 29.4687 6.40625 29.8531C7.2775 30.34 8.27688 32.1594 8.5075 32.7487C8.9175 33.9019 10.25 36.1056 15.4006 35.1575C15.4006 36.8744 15.4263 38.4888 15.4263 38.9756C15.4263 39.5138 15.0419 40.1287 14.0169 39.9494C9.93389 38.5903 6.38251 35.9801 3.86653 32.489C1.35056 28.9979 -0.00225623 24.8032 2.82468e-06 20.5C2.82468e-06 9.17375 9.17375 0 20.5 0Z" fill="black"/>
</g>
<defs>
<clipPath id="clip0_807_90">
<rect width="41" height="41" rx="5" fill="white"/>
</clipPath>
</defs>
</svg>
