<svg width="39" height="39" viewBox="0 0 39 39" fill="none" xmlns="http://www.w3.org/2000/svg">
<path d="M2.65916 34.712H8.86366V19.6438L0 12.9961V32.053C0 33.5221 1.18996 34.7122 2.65916 34.7122V34.712Z" fill="#4285F4"/>
<path d="M30.1365 34.712H36.3411C37.8102 34.712 39.0001 33.5221 39.0001 32.0529V12.9961L30.1365 19.6438V34.712Z" fill="#34A853"/>
<path d="M30.1365 8.12131V19.6441L39.0001 12.9963V9.45089C39.0001 6.16468 35.2487 4.28781 32.6183 6.25997L30.1365 8.12131Z" fill="#FBBC04"/>
<path fill-rule="evenodd" clip-rule="evenodd" d="M8.86377 19.6438V8.12109L19.5001 16.0984L30.1364 8.12109V19.6438L19.5001 27.6211L8.86377 19.6438Z" fill="#EA4335"/>
<path d="M0 9.45065V12.9961L8.86366 19.6438V8.12107L6.38183 6.25973C3.75146 4.28757 0 6.16444 0 9.4505V9.45065Z" fill="#C5221F"/>
</svg>
