<svg width="41" height="41" viewBox="0 0 41 41" fill="none" xmlns="http://www.w3.org/2000/svg">
<path d="M2.79553 36.4922H9.31821V20.6513L0 13.6626V33.6968C0 35.2413 1.25098 36.4923 2.79553 36.4923V36.4922Z" fill="#4285F4"/>
<path d="M31.6816 36.4922H38.2044C39.7489 36.4922 40.9999 35.2412 40.9999 33.6967V13.6626L31.6816 20.6513V36.4922Z" fill="#34A853"/>
<path d="M31.6816 8.53783V20.6515L40.9999 13.6628V9.93559C40.9999 6.48086 37.056 4.50773 34.2907 6.58104L31.6816 8.53783Z" fill="#FBBC04"/>
<path fill-rule="evenodd" clip-rule="evenodd" d="M9.31836 20.6513V8.5376L20.5001 16.924L31.6819 8.5376V20.6513L20.5001 29.0376L9.31836 20.6513Z" fill="#EA4335"/>
<path d="M0 9.93535V13.6626L9.31821 20.6512V8.53758L6.70911 6.5808C3.94385 4.50749 0 6.48062 0 9.93519V9.93535Z" fill="#C5221F"/>
</svg>
