<svg width="39" height="39" viewBox="0 0 39 39" fill="none" xmlns="http://www.w3.org/2000/svg">
<g clip-path="url(#clip0_6_293)">
<rect width="39" height="39" rx="19.5" fill="white"/>
<path d="M19.5 0C30.2738 0 39 8.72625 39 19.5C38.999 23.5857 37.7167 27.5683 35.3336 30.8871C32.9506 34.2059 29.5867 36.6938 25.7156 38.0006C24.7406 38.1956 24.375 37.5863 24.375 37.0744C24.375 36.4162 24.3994 34.32 24.3994 31.7119C24.3994 29.8838 23.79 28.7137 23.0831 28.1044C27.4219 27.6169 31.98 25.9594 31.98 18.4762C31.98 16.3312 31.2244 14.6006 29.9813 13.2356C30.1763 12.7481 30.8588 10.7494 29.7863 8.06812C29.7863 8.06812 28.1531 7.53188 24.4238 10.0669C22.8638 9.62813 21.2063 9.40875 19.5488 9.40875C17.8913 9.40875 16.2338 9.62813 14.6738 10.0669C10.9444 7.55625 9.31125 8.06812 9.31125 8.06812C8.23875 10.7494 8.92125 12.7481 9.11625 13.2356C7.87313 14.6006 7.1175 16.3556 7.1175 18.4762C7.1175 25.935 11.6513 27.6169 15.99 28.1044C15.4294 28.5919 14.9175 29.445 14.7469 30.7125C13.6256 31.2244 10.8225 32.0531 9.0675 29.1037C8.70188 28.5187 7.605 27.0806 6.06938 27.105C4.43625 27.1294 5.41125 28.0312 6.09375 28.3969C6.9225 28.86 7.87313 30.5906 8.0925 31.1512C8.4825 32.2481 9.75 34.3444 14.6494 33.4425C14.6494 35.0756 14.6738 36.6113 14.6738 37.0744C14.6738 37.5863 14.3081 38.1712 13.3331 38.0006C9.44931 36.7079 6.07117 34.225 3.67792 30.9042C1.28468 27.5834 -0.00214617 23.5933 2.68689e-06 19.5C2.68689e-06 8.72625 8.72625 0 19.5 0Z" fill="black"/>
</g>
<rect x="0.5" y="0.5" width="38" height="38" rx="19" stroke="black"/>
<defs>
<clipPath id="clip0_6_293">
<rect width="39" height="39" rx="19.5" fill="white"/>
</clipPath>
</defs>
</svg>
