<svg width="39" height="39" viewBox="0 0 39 39" fill="none" xmlns="http://www.w3.org/2000/svg">
<g clip-path="url(#clip0_6_291)">
<path d="M19.5 0.000244141C8.73036 0.000244141 0 8.7306 0 19.5002C0 30.2698 8.73036 39.0002 19.5 39.0002C30.2696 39.0002 39 30.2698 39 19.5002C38.9999 8.7306 30.2694 0.000244141 19.5 0.000244141ZM14.2973 28.9275H10.0159V15.0955H14.2973V28.9275ZM12.1362 13.2841C10.738 13.2841 9.60442 12.1413 9.60442 10.7319C9.60442 9.32224 10.7381 8.17954 12.1362 8.17954C13.5343 8.17954 14.6679 9.32224 14.6679 10.7319C14.6679 12.1414 13.5344 13.2841 12.1362 13.2841ZM30.3419 28.9275H26.0813V21.6669C26.0813 19.6755 25.3248 18.5639 23.7502 18.5639C22.0365 18.5639 21.1412 19.7216 21.1412 21.6669V28.9275H17.0348V15.0955H21.1412V16.9585C21.1412 16.9585 22.3764 14.6736 25.3093 14.6736C28.2424 14.6736 30.342 16.4645 30.342 20.1693L30.3419 28.9275Z" fill="white"/>
</g>
<defs>
<clipPath id="clip0_6_291">
<rect width="39" height="39" rx="5" fill="white"/>
</clipPath>
</defs>
</svg>
