<svg width="78" height="78" viewBox="0 0 78 78" fill="none" xmlns="http://www.w3.org/2000/svg">
<g clip-path="url(#clip0_603_49)">
<path d="M27.7266 78.6094C34.9781 78.6094 40.8281 72.7594 40.8281 65.5078V52.4062H27.7266C20.475 52.4062 14.625 58.2563 14.625 65.5078C14.625 72.7594 20.475 78.6094 27.7266 78.6094Z" fill="#0ACF83"/>
<path d="M14.625 39.3047C14.625 32.0531 20.475 26.2031 27.7266 26.2031H40.8281V52.4062H27.7266C20.475 52.4062 14.625 46.5562 14.625 39.3047Z" fill="#A259FF"/>
<path d="M14.625 13.1016C14.625 5.85 20.475 0 27.7266 0H40.8281V26.2031H27.7266C20.475 26.2031 14.625 20.3531 14.625 13.1016Z" fill="#F24E1E"/>
<path d="M40.8281 0H53.9297C61.1812 0 67.0312 5.85 67.0312 13.1016C67.0312 20.3531 61.1812 26.2031 53.9297 26.2031H40.8281V0Z" fill="#FF7262"/>
<path d="M67.0312 39.3047C67.0312 46.5562 61.1812 52.4062 53.9297 52.4062C46.6781 52.4062 40.8281 46.5562 40.8281 39.3047C40.8281 32.0531 46.6781 26.2031 53.9297 26.2031C61.1812 26.2031 67.0312 32.0531 67.0312 39.3047Z" fill="#1ABCFE"/>
</g>
<defs>
<clipPath id="clip0_603_49">
<rect width="78" height="78" fill="white"/>
</clipPath>
</defs>
</svg>
