<svg width="78" height="78" viewBox="0 0 78 78" fill="none" xmlns="http://www.w3.org/2000/svg">
<path d="M46.3148 30.8271C41.65 30.8271 39.332 33.2622 39.332 36.7685C39.332 39.0256 40.4605 40.6246 41.9547 41.3565C41.2229 42.0274 40.6135 42.6142 40.0644 43.1931C39.5148 43.7733 39.1796 44.3857 39.1796 45.0572C39.1796 45.8811 39.5148 46.6446 40.5215 47.07C39.4545 48.0779 38.8439 48.8091 38.8439 50.1821C38.8439 52.5909 40.948 53.9943 46.4677 53.9943C51.7742 53.9943 54.8534 52.0132 54.8534 48.5057C54.8534 44.4515 51.7437 44.2985 46.4677 43.9622L43.4794 43.7794L44.4861 42.1633C45.0339 42.3156 45.9193 42.4375 46.8961 42.4375C50.7376 42.4375 53.3909 40.4558 53.3909 37.0701C53.3909 35.6674 52.698 34.6917 52.1496 33.9897L54.8436 33.7765V31.0781H49.121C48.4202 31.0781 47.6262 30.8271 46.3148 30.8271V30.8271ZM47.6871 48.201C49.152 48.2924 50.3111 48.3533 50.3111 49.3308C50.3111 50.9755 47.901 51.0992 46.1332 51.0992C43.998 51.0992 42.4428 50.7323 42.4428 49.513C42.4428 48.9024 42.8389 48.3844 43.2362 47.8969L47.6871 48.201V48.201ZM46.4994 39.2359C44.4861 39.2359 43.6628 38.1981 43.6628 36.7045C43.6628 34.7222 44.9126 33.8983 46.5902 33.8983C48.3282 33.8983 49.3653 34.8441 49.3653 36.643C49.3653 38.2298 48.2063 39.2359 46.4994 39.2359ZM60.4334 28.4487C62.2018 28.4487 63.2085 27.442 63.2085 25.7029C63.2085 23.9661 62.2018 23.0198 60.4334 23.0198C58.6949 23.0198 57.6882 23.9661 57.6882 25.7029C57.6882 27.4414 58.6949 28.4487 60.4334 28.4487ZM62.7655 43.5429V31.0781H56.8344L56.4993 33.4523L58.1245 33.9849C58.4304 34.0757 58.4999 34.2426 58.4999 34.5778V43.5429C58.4999 44.0012 58.2427 44.0926 57.8155 44.1541L56.0624 44.3674V46.9219H65.203V44.3674L63.4504 44.1541C62.9916 44.0926 62.7655 44.0322 62.7655 43.5429ZM76.4265 42.9092C75.694 43.1834 74.8226 43.3961 73.9676 43.3961C72.3217 43.3961 71.9061 42.6953 71.9061 40.8958V33.5156H76.1717V30.4688H72.1267C71.8823 30.4688 71.9061 30.4669 71.9061 30.2537V26.2031H68.9854C68.6502 29.25 67.0311 30.5882 64.5936 30.8941V33.5156H67.0329C67.2773 33.5156 67.0311 33.7308 67.0311 33.913V41.9025C67.0311 45.3497 68.5265 46.8128 72.1547 46.8128C73.8939 46.8128 75.8762 46.2333 77.1882 45.5935L76.4265 42.9092V42.9092ZM18.1215 23.6474C17.9305 23.4565 17.7037 23.305 17.4542 23.2016C17.2047 23.0982 16.9373 23.045 16.6672 23.045C16.3971 23.045 16.1297 23.0982 15.8801 23.2016C15.6306 23.305 15.4039 23.4565 15.2129 23.6474L12.3178 26.5426L15.9905 30.2153C16.4236 30.0678 16.8894 30.045 17.3348 30.1494C17.7803 30.2538 18.1874 30.4813 18.5099 30.8059C18.8323 31.1305 19.057 31.5392 19.1585 31.9853C19.2599 32.4314 19.234 32.8971 19.0837 33.3292L22.6235 36.869C23.1467 36.6871 23.7161 36.6882 24.2385 36.8722C24.7609 37.0561 25.2054 37.412 25.4992 37.8816C25.7929 38.3511 25.9185 38.9065 25.8554 39.4568C25.7923 40.007 25.5442 40.5196 25.1518 40.9104C24.9246 41.1379 24.6549 41.3183 24.3579 41.4414C24.061 41.5645 23.7426 41.6279 23.4212 41.6279C23.0997 41.6279 22.7814 41.5645 22.4845 41.4414C22.1875 41.3183 21.9177 41.1379 21.6906 40.9104C20.9715 40.1907 20.7009 39.1347 21.0659 38.2487L17.6717 34.9477V43.6355C17.6717 43.7507 18.2171 43.9043 18.4115 44.0981C19.367 45.0536 19.4133 46.6026 18.4572 47.5599C18.2322 47.7869 17.9644 47.9671 17.6694 48.0901C17.3743 48.2131 17.0578 48.2764 16.7382 48.2764C16.4185 48.2764 16.102 48.2131 15.807 48.0901C15.5119 47.9671 15.2442 47.7869 15.0191 47.5599C14.0636 46.6026 14.0752 45.0542 15.0313 44.0981C15.2677 43.8622 15.2342 43.6837 15.8436 43.5642V34.7959C15.2342 34.6765 15.2787 34.4992 15.0429 34.2621C14.6996 33.9188 14.4661 33.4811 14.3723 33.0048C14.2784 32.5284 14.3284 32.0349 14.5158 31.587L10.8949 27.9655L1.33439 37.5259C1.14324 37.7169 0.99161 37.9436 0.888153 38.1932C0.784696 38.4428 0.731445 38.7103 0.731445 38.9805C0.731445 39.2507 0.784696 39.5182 0.888153 39.7678C0.99161 40.0174 1.14324 40.2442 1.33439 40.4351L15.2781 54.3782C15.664 54.7636 16.187 54.9801 16.7324 54.9801C17.2777 54.9801 17.8008 54.7636 18.1867 54.3782L32.0652 40.4991C32.4506 40.1131 32.6671 39.59 32.6671 39.0445C32.6671 38.499 32.4506 37.9759 32.0652 37.5899L18.1215 23.6474V23.6474Z" fill="#F34F29"/>
</svg>
