<svg width="78" height="78" viewBox="0 0 78 78" fill="none" xmlns="http://www.w3.org/2000/svg">
<rect width="78" height="78" fill="white"/>
<path fill-rule="evenodd" clip-rule="evenodd" d="M39.0001 3.10962C18.6793 3.10962 2.20117 19.5841 2.20117 39.9086C2.20117 56.1679 12.7452 69.9611 27.3665 74.8276C29.205 75.1688 29.8802 74.0293 29.8802 73.0573C29.8802 72.1798 29.8461 69.281 29.8302 66.2061C19.5927 68.4322 17.4325 61.8643 17.4325 61.8643C15.7585 57.6109 13.3466 56.4799 13.3466 56.4799C10.0073 54.196 13.5983 54.2435 13.5983 54.2435C17.293 54.5025 19.2393 58.0356 19.2393 58.0356C22.5214 63.6602 27.8479 62.0344 29.9478 61.0947C30.2781 58.7163 31.2318 57.0923 32.2842 56.1734C24.1106 55.2441 15.5178 52.0881 15.5178 37.9878C15.5178 33.9702 16.956 30.6875 19.31 28.1098C18.9273 27.1836 17.6677 23.4408 19.6659 18.372C19.6659 18.372 22.7554 17.383 29.7876 22.1441C32.7235 21.3281 35.8722 20.918 39.0001 20.904C42.1262 20.918 45.2767 21.3269 48.2181 22.1428C55.2418 17.3818 58.3277 18.3708 58.3277 18.3708C60.3307 23.439 59.0711 27.1824 58.689 28.1086C61.0485 30.6863 62.4763 33.969 62.4763 37.9866C62.4763 52.1204 53.8676 55.2319 45.6734 56.1435C46.9939 57.2855 48.17 59.5256 48.17 62.9582C48.17 67.8819 48.1273 71.8447 48.1273 73.0567C48.1273 74.036 48.7903 75.1835 50.655 74.8221C65.2678 69.9507 75.7997 56.1618 75.7997 39.9086C75.799 19.5853 59.3228 3.11023 39.0001 3.11023V3.10962Z" fill="#181616"/>
<path d="M16.139 55.9442C16.058 56.127 15.7703 56.1819 15.5083 56.0569C15.2402 55.9375 15.0909 55.6883 15.1774 55.5049C15.2566 55.3159 15.5449 55.2642 15.8112 55.3903C16.0793 55.5103 16.2316 55.762 16.1384 55.9448L16.139 55.9442ZM17.6295 57.6072C17.4547 57.7699 17.1116 57.6943 16.8788 57.4366C16.6375 57.1806 16.5924 56.8376 16.7709 56.6724C16.9525 56.5103 17.2852 56.5871 17.5266 56.843C17.7667 57.1026 17.8142 57.4427 17.6302 57.6078L17.6295 57.6072ZM19.0811 59.726C18.8556 59.8832 18.4863 59.7364 18.2584 59.4091C18.033 59.0813 18.033 58.6882 18.2645 58.5316C18.4918 58.3744 18.8556 58.5164 19.0872 58.8406C19.3114 59.1727 19.3114 59.5657 19.0811 59.7254V59.726ZM21.0683 61.7741C20.8672 61.9965 20.4369 61.9368 20.1225 61.6339C19.8014 61.3372 19.7118 60.9149 19.9135 60.6931C20.1182 60.47 20.5503 60.5322 20.8665 60.8332C21.1877 61.1294 21.2846 61.5523 21.0695 61.7735L21.0683 61.7741ZM23.8104 62.963C23.7209 63.2512 23.3077 63.3822 22.8903 63.2592C22.4741 63.133 22.2017 62.796 22.287 62.5047C22.3723 62.2141 22.7885 62.0782 23.2084 62.2092C23.6246 62.3347 23.897 62.6699 23.8104 62.963ZM26.8226 63.183C26.8329 63.4864 26.4795 63.7375 26.0426 63.7436C25.602 63.754 25.2455 63.5078 25.2413 63.2092C25.2413 62.9027 25.5874 62.6547 26.0273 62.6461C26.4643 62.6382 26.8232 62.8819 26.8232 63.1824L26.8226 63.183ZM29.6245 62.7064C29.6769 63.002 29.3728 63.3061 28.9383 63.3871C28.5118 63.4663 28.1157 63.2823 28.0608 62.9892C28.0084 62.6857 28.318 62.3817 28.7445 62.303C29.1796 62.2281 29.5696 62.4066 29.6245 62.7071V62.7064Z" fill="#181616"/>
</svg>
