<svg width="78" height="80" viewBox="0 0 78 80" fill="none" xmlns="http://www.w3.org/2000/svg">
<g clip-path="url(#clip0_319_66)">
<path d="M0 0.724609H78V79.5691H0V0.724609Z" fill="#F0DB4F"/>
<path d="M71.6161 60.7649C71.0452 57.1674 68.7245 54.1471 61.8513 51.329C59.4638 50.2198 56.8021 49.4254 56.0087 47.5966C55.727 46.5324 55.6899 45.9328 55.8678 45.2883C56.3794 43.1972 58.8484 42.5452 60.8059 43.1448C62.0663 43.572 63.26 44.5538 63.9792 46.1202C67.3454 43.9168 67.338 43.9317 69.6884 42.4178C68.8283 41.0688 68.3686 40.4466 67.8051 39.8696C65.7809 37.5837 63.0228 36.407 58.6112 36.497C57.8475 36.5944 57.0765 36.6993 56.3127 36.7968C54.1107 37.3589 52.0123 38.5281 50.7815 40.0945C47.0891 44.329 48.142 51.7412 52.6351 54.7917C57.0616 58.1493 63.564 58.9138 64.3944 62.0541C65.2026 65.8989 61.5993 67.143 58.018 66.7008C55.3785 66.1462 53.9105 64.7897 52.3237 62.3239C49.4025 64.0327 49.4025 64.0327 46.3997 65.779C47.1115 67.3529 47.8602 68.0649 49.054 69.4289C54.7038 75.2224 68.8431 74.9376 71.3789 66.1687C71.4826 65.8689 72.1648 63.8603 71.6161 60.7649ZM42.4032 36.9616H35.1074C35.1074 43.3321 35.0778 49.6577 35.0778 56.0282C35.0778 60.0829 35.2854 63.8003 34.633 64.9395C33.5653 67.1804 30.7997 66.9031 29.5392 66.4684C28.2566 65.8313 27.6041 64.9244 26.8478 63.6429C26.6402 63.2757 26.4845 62.9909 26.4325 62.9684C24.4529 64.19 22.4806 65.4191 20.501 66.6408C21.4872 68.6869 22.9403 70.4631 24.8013 71.6173C27.5818 73.3036 31.3186 73.8207 35.2261 72.9138C37.7693 72.1644 39.9639 70.613 41.1131 68.2522C42.7739 65.1569 42.4181 61.4095 42.4032 57.2649C42.4403 50.5046 42.4032 43.7443 42.4032 36.9616Z" fill="#323330"/>
</g>
<defs>
<clipPath id="clip0_319_66">
<rect width="78" height="78.8445" fill="white" transform="translate(0 0.724609)"/>
</clipPath>
</defs>
</svg>
