<svg width="78" height="78" viewBox="0 0 78 78" fill="none" xmlns="http://www.w3.org/2000/svg">
<rect width="78" height="78" fill="white"/>
<path fill-rule="evenodd" clip-rule="evenodd" d="M53.1733 61.0221C53.2763 60.824 53.375 60.6492 53.4591 60.4682C53.5121 60.3524 53.5938 60.3292 53.709 60.3323C54.3994 60.3518 55.0898 60.3731 55.7809 60.3798C56.3677 60.3859 56.9557 60.3749 57.5432 60.3682C58.2049 60.3603 58.8667 60.3256 59.5279 60.3445C60.4084 60.3701 61.2664 60.5425 62.0629 60.9343C63.0141 61.403 63.7338 62.1165 64.2244 63.0568C64.5328 63.653 64.7253 64.3023 64.7917 64.9702C64.8965 65.9501 64.8276 66.9074 64.5169 67.8447C64.1317 69.0061 63.4005 69.8952 62.3847 70.5613C61.6028 71.0737 60.7454 71.3766 59.8265 71.5497C58.8539 71.7331 57.8783 71.674 56.9027 71.677C55.8326 71.6813 54.7632 71.6581 53.6931 71.6459C53.5061 71.6441 53.4792 71.6088 53.5286 71.4302L53.5743 71.2657C53.6785 70.9378 53.7346 70.9232 54.0673 70.8684C54.3031 70.8312 54.5287 70.7455 54.7297 70.6167C54.8418 70.5424 54.8881 70.3486 54.932 70.1993C54.9698 70.0689 54.9716 69.9257 54.9728 69.788C54.9881 67.7008 55.0039 65.6143 55.0124 63.5285C55.0148 63.0009 55.0016 62.4733 54.9728 61.9465C54.9521 61.5778 54.7553 61.3256 54.3165 61.2384C53.9753 61.1708 53.6316 61.1184 53.2885 61.058L53.1733 61.0221V61.0221ZM62.9697 66.0756C62.9233 65.66 62.9008 65.2408 62.8264 64.8313C62.6485 63.8484 62.2183 62.9922 61.4627 62.3213C60.2409 61.2372 58.7698 61.0702 57.2281 61.1994C56.8771 61.2287 56.8016 61.3487 56.7961 61.7095C56.7875 62.2213 56.779 62.7332 56.7784 63.2451C56.776 64.8685 56.776 66.4918 56.7784 68.1152C56.779 68.5771 56.7839 69.039 56.7973 69.4997C56.8119 69.9714 56.9831 70.3705 57.4451 70.5533C58.1733 70.8416 58.9392 70.8757 59.7034 70.7581C60.924 70.571 61.7777 69.8599 62.3505 68.7941C62.8039 67.9483 62.9319 67.025 62.9697 66.0756V66.0756ZM65.9367 71.6033C65.9221 71.3504 66.0257 71.1414 66.1536 70.9494C66.1884 70.8976 66.3078 70.9001 66.3901 70.8836L67.0884 70.7453C67.3352 70.6929 67.465 70.5271 67.4997 70.2852C67.5229 70.1255 67.5448 69.9641 67.5467 69.8026C67.5632 68.5248 67.5752 67.2469 67.5826 65.969C67.5887 64.6893 67.5838 63.4096 67.5838 62.1299L67.5784 61.8856C67.5534 61.4743 67.3547 61.261 66.9464 61.2006L66.061 61.066C65.9519 61.0513 65.9123 60.9989 65.9519 60.902C66.0202 60.7369 66.0854 60.5657 66.1817 60.417C66.2176 60.3621 66.3389 60.3408 66.4205 60.3426C66.8434 60.3487 67.2664 60.3804 67.6893 60.3798L71.3705 60.3579C72.0798 60.3573 72.7647 60.481 73.4009 60.8204C74.1011 61.1933 74.4929 61.7704 74.6051 62.5565C74.7221 63.3822 74.4716 64.0781 73.8683 64.6308C73.6203 64.8587 73.2992 65.0074 73.0115 65.1927L72.9177 65.2512C73.1846 65.3493 73.4387 65.434 73.6861 65.5351C74.4101 65.8319 74.9859 66.2956 75.2906 67.036C75.5313 67.6204 75.5313 68.2298 75.3887 68.8355C75.1669 69.7837 74.5423 70.4144 73.73 70.8915C72.9677 71.3394 72.1426 71.6002 71.2639 71.6441C70.4534 71.6849 69.6393 71.6697 68.827 71.6788L68.3565 71.6813C67.5736 71.6633 66.7908 71.6438 66.008 71.6228L65.9367 71.6033V71.6033ZM69.3108 67.8928H69.3187C69.3187 68.2938 69.3132 68.6947 69.3206 69.0957C69.3254 69.3553 69.3163 69.6222 69.3724 69.8721C69.4564 70.2456 69.6271 70.5826 70.0463 70.6898C70.6068 70.8371 71.1923 70.8629 71.7635 70.7654C72.4808 70.6405 73.053 70.2809 73.3668 69.5978C73.5996 69.0902 73.6343 68.5521 73.5545 68.0025C73.4485 67.2785 73.0639 66.7533 72.4247 66.409C72.0055 66.1829 71.5582 66.0446 71.0817 66.0263C70.5478 66.0062 70.0134 66.005 69.4796 65.9885C69.3297 65.9842 69.309 66.0604 69.3096 66.1835C69.3126 66.7527 69.3108 67.3224 69.3108 67.8928V67.8928ZM70.4473 65.1658C70.7392 65.1512 71.0695 65.147 71.3979 65.114C72.0268 65.0513 72.4698 64.735 72.7008 64.1336C72.8184 63.8283 72.8135 63.5138 72.8165 63.1963C72.8257 62.3694 72.3431 61.6918 71.5576 61.4115C70.9512 61.1952 70.326 61.1915 69.6972 61.2086C69.4424 61.2153 69.3285 61.3268 69.3248 61.5833L69.287 64.9282C69.2852 65.061 69.3425 65.1183 69.4717 65.1226L70.4473 65.1658V65.1658Z" fill="#94795D"/>
<path fill-rule="evenodd" clip-rule="evenodd" d="M6.42472 70.9606L6.38023 71.5358C5.96586 71.5358 5.58378 71.5328 5.2017 71.537C4.48203 71.5444 3.76236 71.5559 3.04208 71.5663L2.97261 71.5706C2.86962 71.5584 2.68254 71.5584 2.67767 71.5279C2.6472 71.3567 2.65695 71.1769 2.66487 70.9996C2.66548 70.9795 2.73556 70.9539 2.77639 70.9441L3.3364 70.8192C3.68558 70.7284 3.80867 70.5779 3.82512 70.2171C3.84401 69.8107 3.8629 69.4036 3.86473 68.9972C3.87022 67.9966 3.86412 66.9972 3.86839 65.9966C3.869 65.7626 3.78795 65.5883 3.56979 65.4933C3.31056 65.3782 3.04951 65.2673 2.78675 65.1605C2.66243 65.1106 2.50095 65.0832 2.51558 64.9162C2.5302 64.7462 2.68681 64.7017 2.83428 64.6682C3.44487 64.5286 4.05608 64.3927 4.66484 64.244C4.86106 64.1959 5.04875 64.1149 5.28336 64.0332C5.29554 64.16 5.31809 64.2806 5.31565 64.4013L5.2797 64.9747C5.27909 65.0393 5.31261 65.1258 5.36075 65.1618C5.39 65.1843 5.48811 65.1435 5.53686 65.1057C6.05726 64.7096 6.60814 64.3678 7.2364 64.1685C8.20958 63.8595 9.04503 64.1459 9.63003 64.985C9.836 65.2806 9.83661 65.2806 10.1224 65.074C10.613 64.7175 11.126 64.4031 11.7001 64.1959C12.9603 63.7407 14.1711 64.3184 14.6092 65.5877C14.7689 66.0484 14.8298 66.5243 14.8286 67.0106L14.817 70.2391C14.8164 70.5054 14.9048 70.6571 15.1583 70.74C15.4429 70.8332 15.7378 70.8972 16.0583 70.9813L15.984 71.5364C15.6196 71.5364 15.2844 71.534 14.9493 71.537C14.1303 71.5444 13.3113 71.5486 12.4929 71.5675C12.3503 71.5712 12.3131 71.5358 12.3058 71.4024C12.282 70.9752 12.2784 70.9758 12.6806 70.8795L12.8158 70.8448C13.2089 70.7375 13.3399 70.6169 13.343 70.2184C13.3521 69.074 13.3759 67.9265 13.318 66.7845C13.2576 65.5999 12.3174 64.9692 11.1693 65.2727C10.7988 65.3741 10.4498 65.5422 10.1395 65.7687C10.0328 65.8449 10.0127 65.9326 10.0212 66.0661C10.0535 66.5706 10.0737 67.0758 10.0779 67.581C10.0852 68.4652 10.0743 69.3494 10.0779 70.2342C10.0791 70.5925 10.2016 70.7296 10.5557 70.8125L11.0816 70.9338L11.1791 70.9557C11.1864 71.1239 11.1931 71.2921 11.1852 71.4603C11.1803 71.5657 11.0986 71.5748 11.0072 71.573C10.496 71.5602 9.98408 71.5431 9.47281 71.5444C8.85064 71.5456 8.22908 71.5633 7.60751 71.5742H7.46126C7.46126 71.3957 7.45273 71.225 7.46736 71.055C7.4704 71.0142 7.54231 70.9569 7.59167 70.9441L8.2047 70.8143C8.4649 70.7503 8.58922 70.6169 8.60384 70.3524C8.67331 69.1276 8.72328 67.9021 8.60811 66.6779C8.58004 66.4361 8.51295 66.2005 8.40945 65.9802C8.09562 65.2867 7.38936 64.9972 6.57462 65.2056C6.18767 65.3044 5.8385 65.4817 5.50822 65.7053C5.43619 65.7497 5.37703 65.8121 5.33662 65.8864C5.29621 65.9607 5.27596 66.0443 5.27787 66.1288C5.27787 67.3506 5.28214 68.5724 5.28579 69.7936L5.2925 70.2647C5.29981 70.5931 5.43936 70.7662 5.76537 70.8369C5.975 70.8844 6.18706 70.9167 6.42472 70.9606V70.9606Z" fill="#50382B"/>
<path fill-rule="evenodd" clip-rule="evenodd" d="M43.2665 64.1581C43.3609 64.6176 43.3591 65.0307 43.0215 65.344C42.6863 65.6554 42.2622 65.5505 41.8485 65.4811C41.8868 65.6992 41.9295 65.8845 41.9502 66.0722C42.1007 67.467 41.5005 68.5024 40.2068 69.0941C39.7181 69.3171 39.1995 69.4 38.67 69.4426C38.4067 69.4633 38.1764 69.6644 38.1514 69.8808C38.1258 70.1001 38.2635 70.3256 38.5389 70.3914C38.8637 70.4688 39.2025 70.4907 39.5359 70.5291C40.2513 70.6108 40.9746 70.648 41.6815 70.7759C42.7503 70.9685 43.3469 71.9014 43.1586 72.9752C42.991 73.9307 42.4377 74.626 41.6663 75.1592C40.3665 76.0598 38.9405 76.3231 37.422 75.8636C36.5536 75.6004 35.9412 75.0294 35.7297 74.1056C35.6237 73.643 35.7364 73.2244 36.0844 72.9106C36.4981 72.5389 36.9485 72.2073 37.3817 71.8563L37.5219 71.7156L37.361 71.6028C36.9192 71.3932 36.5658 71.1062 36.4287 70.6077C36.3817 70.4389 36.4305 70.328 36.5737 70.2415C36.8175 70.0946 37.06 69.9453 37.3007 69.7936C37.414 69.7229 37.5262 69.6498 37.6316 69.5681C37.7754 69.4585 37.7626 69.3768 37.5908 69.3134C37.191 69.166 36.8357 68.9521 36.5603 68.623C36.1002 68.074 35.9698 67.4201 36.0076 66.7297C36.0667 65.6511 36.6523 64.9406 37.6042 64.4835C38.7358 63.9406 39.871 63.9064 41.0246 64.4013C41.4511 64.5841 41.9009 64.6231 42.3585 64.5914C42.7004 64.567 42.999 64.4378 43.2665 64.1581V64.1581ZM39.0965 71.8856C38.247 71.8783 37.9807 71.9831 37.4823 72.4907C36.9241 73.0599 36.9271 73.849 37.4841 74.4206C37.907 74.8539 38.4347 75.0568 39.0216 75.1177C39.7071 75.1884 40.3823 75.1598 41.0051 74.8167C41.6693 74.4492 41.9996 73.7667 41.8503 73.0794C41.7266 72.512 41.3085 72.2524 40.7997 72.1031C40.2208 71.9337 39.6224 71.9014 39.0965 71.8856V71.8856ZM37.428 66.4573C37.4591 66.6931 37.4719 66.932 37.5243 67.1629C37.6602 67.7614 37.9204 68.2872 38.5158 68.5535C39.2147 68.8674 40.1075 68.7327 40.4134 67.7516C40.6224 67.0987 40.598 66.3935 40.3445 65.7565C40.2371 65.4654 40.0437 65.2137 39.79 65.035C39.183 64.6115 38.088 64.5554 37.6419 65.4914C37.4969 65.7955 37.4402 66.1191 37.428 66.4573V66.4573Z" fill="#4F382B"/>
<path fill-rule="evenodd" clip-rule="evenodd" d="M28.8539 64.0075C28.8764 64.1117 28.9215 64.2299 28.9227 64.3487C28.9246 64.5748 28.9002 64.8009 28.8874 65.027V65.2232L29.0787 65.0769C29.6028 64.6455 30.1659 64.278 30.8216 64.08C32.005 63.7235 33.1872 64.3713 33.5729 65.5766C33.7191 66.0349 33.777 66.5059 33.7825 66.9849C33.7947 68.0489 33.802 69.1128 33.813 70.1768C33.8166 70.5589 33.8605 70.6271 34.2219 70.7374C34.4275 70.7988 34.6373 70.8454 34.8495 70.877C34.9659 70.8952 35.0159 70.9409 35.0098 71.0549L35.011 71.1597C35.0067 71.6003 34.9763 71.6204 34.5491 71.6192C33.5266 71.6173 32.5047 71.6234 31.4821 71.632C31.1774 71.6344 31.1768 71.6435 31.1464 71.3425L31.1403 71.1695C31.1592 70.9099 31.1652 70.9123 31.4206 70.8745C31.5924 70.8489 31.763 70.8093 31.9306 70.7654C32.1031 70.721 32.186 70.5936 32.2091 70.423C32.2207 70.3364 32.2359 70.2499 32.2353 70.1634C32.2207 69.0007 32.2396 67.8368 32.1762 66.6759C32.125 65.7369 31.4084 65.1775 30.4657 65.2415C30.0113 65.2729 29.5745 65.4296 29.2037 65.6942C28.952 65.8703 28.9014 66.1244 28.9026 66.3981C28.9075 67.4852 28.9179 68.5723 28.9295 69.66C28.9319 69.8983 28.9386 70.1366 28.9611 70.373C28.9849 70.6314 29.0757 70.7356 29.3292 70.7916C29.5717 70.8453 29.8191 70.8763 30.0781 70.9196L30.1001 71.1195C30.1086 71.5857 30.0598 71.6204 29.6071 71.6186C28.5498 71.6143 27.4925 71.621 26.4359 71.6326C26.2695 71.635 26.1988 71.5826 26.2031 71.4205L26.2007 71.351C26.1732 70.9312 26.1854 70.9153 26.5827 70.8471L26.7704 70.8093C27.2007 70.7124 27.311 70.5979 27.317 70.1609C27.3372 68.7771 27.3445 67.3938 27.3585 66.0099C27.3603 65.8112 27.2854 65.6571 27.1001 65.5748C26.8401 65.4609 26.5787 65.3504 26.3158 65.2433C26.1708 65.1836 26.0051 65.1458 25.9996 64.9453C25.9959 64.8039 26.147 64.679 26.3536 64.637C26.7686 64.5529 27.1872 64.4828 27.5974 64.3798C28.0056 64.278 28.4066 64.1415 28.8539 64.0075Z" fill="#4F372B"/>
<path fill-rule="evenodd" clip-rule="evenodd" d="M51.7148 67.6224C51.6953 68.9148 51.3595 69.9599 50.4455 70.7442C49.2876 71.7393 47.4815 72.0775 46.0049 71.3334C45.3748 71.016 44.9117 70.5291 44.6101 69.8972C44.1476 68.9252 44.0318 67.9033 44.2731 66.8564C44.512 65.821 45.139 65.0709 46.0775 64.5852C47.0427 64.0862 48.0591 63.8912 49.131 64.1532C50.4869 64.4841 51.4613 65.5895 51.6551 66.9971C51.6898 67.2439 51.7032 67.4938 51.7148 67.6224V67.6224ZM50.1444 68.3225L50.092 68.3164C50.092 68.1946 50.0987 68.0727 50.0908 67.9508C50.0463 67.1915 49.8757 66.4682 49.4357 65.8326C49.0183 65.2306 48.4498 64.8753 47.71 64.8235C46.8818 64.765 46.1859 65.2281 45.9416 66.0739C45.5747 67.3439 45.699 68.5815 46.3438 69.7448C46.6247 70.2518 47.0409 70.626 47.5985 70.8228C48.6911 71.2073 49.66 70.7094 49.9445 69.5906C50.0494 69.1775 50.0798 68.7454 50.1444 68.3225Z" fill="#4F382B"/>
<path fill-rule="evenodd" clip-rule="evenodd" d="M24.8742 67.7222C24.8516 68.6496 24.6329 69.507 24.0601 70.2523C23.4464 71.0506 22.603 71.4771 21.6439 71.6569C20.5098 71.869 19.4447 71.6764 18.5336 70.9153C18.101 70.5533 17.8054 70.0896 17.6104 69.5619C17.2905 68.6966 17.2107 67.8099 17.4075 66.9062C17.6177 65.9391 18.1637 65.2 19.0102 64.7039C19.9888 64.1317 21.0449 63.8764 22.1728 64.1336C23.6231 64.4651 24.4604 65.4102 24.77 66.841C24.8321 67.1299 24.8407 67.4285 24.8742 67.7222V67.7222ZM23.2862 68.334L23.2441 68.3279V68.1536C23.2203 67.3029 23.054 66.4925 22.5464 65.7856C22.1704 65.2609 21.667 64.9318 21.0217 64.8398C19.9699 64.6899 19.2826 65.3139 19.0547 66.1616C18.7573 67.2688 18.8505 68.3626 19.3106 69.4126C19.5976 70.067 20.051 70.5771 20.7475 70.8245C21.8334 71.2102 22.8169 70.6996 23.0918 69.585C23.1929 69.1774 23.2234 68.752 23.2862 68.334V68.334Z" fill="#4F372B"/>
<path fill-rule="evenodd" clip-rule="evenodd" d="M50.1895 20.4409C50.9372 22.6024 51.4747 24.8089 51.652 27.0953C51.8714 29.9325 51.7714 32.7503 51.173 35.5406L51.0963 35.7637C50.9086 35.7643 50.7172 35.7405 50.5338 35.7691C48.9842 36.0129 47.4363 36.2652 45.8879 36.5162C44.2871 36.7758 42.6851 37.0251 41.0873 37.3017C40.5212 37.3992 39.8204 37.2828 39.5919 38.0653L39.4822 38.1024L39.5596 33.4237L39.481 22.1344L40.2268 22.0064C41.4462 21.8071 42.6655 21.6042 43.8867 21.4098C45.3431 21.1789 46.8008 20.9534 48.2584 20.7279C48.9019 20.6292 49.546 20.5372 50.1895 20.4409V20.4409Z" fill="#439934"/>
<path fill-rule="evenodd" clip-rule="evenodd" d="M37.9426 51.7426C37.1559 51.0662 36.3417 50.4196 35.5879 49.7079C31.5307 45.881 28.5625 41.3759 27.1006 35.9446C26.6978 34.4504 26.4296 32.9312 26.3431 31.387C26.2822 30.306 26.195 29.2158 26.2718 28.1403C26.4747 25.2805 26.8885 22.4481 27.727 19.6931L27.7733 19.6292C27.855 19.7376 27.972 19.8339 28.0134 19.9564C28.8324 22.3671 29.6447 24.7802 30.4533 27.1951C32.9938 34.7825 35.5313 42.3716 38.076 49.9577C38.126 50.1058 38.2546 50.2271 38.3472 50.3605L37.9426 51.7426V51.7426Z" fill="#45A538"/>
<path fill-rule="evenodd" clip-rule="evenodd" d="M50.1893 20.4408C49.5451 20.5364 48.901 20.6291 48.2581 20.7278C46.8005 20.9533 45.3429 21.1787 43.8865 21.4097C42.6659 21.6035 41.4466 21.8064 40.2266 22.0063L39.4807 22.1342L39.4746 21.6479C39.4496 21.2482 39.4082 20.8484 39.4027 20.4487L39.3192 12.7986C39.2997 11.2026 39.2705 9.60669 39.2382 8.01135C39.2217 7.01978 39.1931 6.02846 39.1523 5.0376C39.1279 4.50561 39.042 3.97606 39.0078 3.44408C38.9877 3.13817 39.0145 2.82983 39.0212 2.52271C39.4015 3.25944 39.7738 4.00166 40.1644 4.73291C40.7817 5.88889 41.7659 6.7408 42.6525 7.6701C46.154 11.3452 48.6396 15.6157 50.1893 20.4408V20.4408Z" fill="#46A037"/>
<path fill-rule="evenodd" clip-rule="evenodd" d="M39.4826 38.1023L39.5923 38.0652C39.8208 37.2827 40.5216 37.3991 41.0877 37.3016C42.6855 37.025 44.2875 36.7757 45.8884 36.5161C47.4368 36.2657 48.9846 36.0134 50.5342 35.769C50.7177 35.7404 50.909 35.7642 51.0967 35.7636C50.8072 36.7971 50.5793 37.8531 50.2119 38.858C49.7945 39.9975 49.2899 41.1102 48.7543 42.201C47.9519 43.8276 46.9592 45.3532 45.797 46.7457C44.9036 47.8194 43.9079 48.8133 42.9104 49.7938C42.3583 50.3355 41.7087 50.7773 41.1029 51.2648L40.9457 51.1576L40.3808 50.675L39.7964 49.3928C39.3972 47.8977 39.1793 46.36 39.1475 44.8128L39.1584 44.552L39.2383 43.4222C39.2645 43.0365 39.2998 42.6513 39.3163 42.2656C39.3748 40.8787 39.4272 39.4905 39.4826 38.1023V38.1023Z" fill="#409433"/>
<path fill-rule="evenodd" clip-rule="evenodd" d="M39.4826 38.1023C39.4277 39.4905 39.3753 40.8793 39.3162 42.2674C39.2998 42.6538 39.265 43.0389 39.2382 43.424L38.8823 43.5587C38.0914 41.2303 37.2998 38.9262 36.5259 36.6167C35.2456 32.7953 33.9811 28.9684 32.7027 25.1458C31.6703 22.0608 30.6307 18.9781 29.5839 15.8979C29.5345 15.7541 29.3944 15.6408 29.2969 15.5134L31.5759 11.3228C31.6545 11.4586 31.7575 11.586 31.8069 11.7323C32.8611 14.8523 33.9135 17.9729 34.9568 21.0965C36.3144 25.1611 37.663 29.2274 39.0195 33.2926C39.0737 33.4546 39.1627 33.6045 39.248 33.7868L39.56 33.4236L39.4826 38.1023Z" fill="#4FAA41"/>
<path fill-rule="evenodd" clip-rule="evenodd" d="M29.2964 15.5134C29.3945 15.6408 29.5347 15.7541 29.5834 15.8979C30.6303 18.9781 31.6699 22.0607 32.7022 25.1458C33.9807 28.9684 35.2451 32.7953 36.5254 36.6167C37.2993 38.9262 38.0909 41.2297 38.8819 43.5587L39.2377 43.424L39.1579 44.5538L39.0854 44.814C38.9617 46.0504 38.8575 47.2893 38.7064 48.5233C38.6308 49.1418 38.4693 49.7487 38.3468 50.3605C38.2548 50.2271 38.1256 50.1058 38.0757 49.9577C35.5303 42.3716 32.9935 34.7825 30.453 27.1951C29.6447 24.7805 28.8314 22.3676 28.013 19.9564C27.9716 19.8339 27.8546 19.7376 27.7729 19.6291L29.2964 15.5134V15.5134Z" fill="#4AA73C"/>
<path fill-rule="evenodd" clip-rule="evenodd" d="M39.5592 33.4237L39.2472 33.7869C39.1619 33.6047 39.0729 33.4548 39.0187 33.2927C37.6622 29.2276 36.3137 25.1612 34.956 21.0967C33.9115 17.9734 32.8616 14.852 31.8061 11.7324C31.7568 11.5862 31.6538 11.4588 31.5752 11.3229L34.3936 7.61548C34.4825 7.7337 34.6093 7.83912 34.655 7.97257C35.4374 10.2638 36.2125 12.5569 36.984 14.8518C37.7043 16.9956 38.4136 19.1418 39.1424 21.2819C39.1912 21.4251 39.3612 21.5263 39.4745 21.6482L39.4806 22.1344L39.5592 33.4237V33.4237Z" fill="#57AE47"/>
<path fill-rule="evenodd" clip-rule="evenodd" d="M39.4745 21.6481C39.3606 21.5268 39.1912 21.4256 39.1424 21.2818C38.4142 19.1417 37.7043 16.9955 36.984 14.8517C36.2131 12.5568 35.4368 10.2637 34.655 7.97247C34.6093 7.83902 34.4825 7.73359 34.3936 7.61537C35.3101 6.71777 36.1979 5.78786 37.1516 4.93169C37.9992 4.17119 38.6805 3.35584 38.7122 2.15355L38.7792 1.91406L39.0205 2.52222C39.0144 2.82934 38.987 3.13769 39.0071 3.44359C39.0419 3.97558 39.1278 4.50512 39.1516 5.03711C39.196 6.02734 39.2174 7.01941 39.2375 8.01086C39.2698 9.6062 39.299 11.2022 39.3185 12.7981L39.402 20.4482C39.4081 20.8486 39.4501 21.2483 39.4745 21.6481V21.6481Z" fill="#60B24F"/>
<path fill-rule="evenodd" clip-rule="evenodd" d="M38.3471 50.36C38.4696 49.7482 38.6311 49.1413 38.7067 48.5227C38.8578 47.2894 38.962 46.0499 39.0857 44.8135L39.1168 44.8086L39.1472 44.8141C39.179 46.3613 39.3969 47.899 39.7962 49.3941C39.714 49.5026 39.5988 49.5983 39.5549 49.7202C39.2167 50.6744 38.8974 51.6366 38.5574 52.5903C38.511 52.7207 38.3806 52.8225 38.2898 52.9364L37.9419 51.7421L38.3471 50.36Z" fill="#A9AA88"/>
<path fill-rule="evenodd" clip-rule="evenodd" d="M38.29 52.9371C38.3808 52.8225 38.5112 52.7214 38.5576 52.5909C38.8976 51.6373 39.2169 50.6751 39.5551 49.7208C39.5984 49.5989 39.7141 49.5032 39.7964 49.3948L40.3808 50.6769C40.2656 50.8402 40.106 50.9883 40.042 51.1705L38.9232 54.4562C38.8769 54.5885 38.7203 54.6811 38.6142 54.7926L38.29 52.9371V52.9371Z" fill="#B6B598"/>
<path fill-rule="evenodd" clip-rule="evenodd" d="M38.6143 54.792C38.7197 54.6805 38.8769 54.5878 38.9232 54.4556L40.042 51.1699C40.1054 50.9877 40.2657 50.8396 40.3808 50.6763L40.9463 51.1583C40.6733 51.4282 40.5216 51.7402 40.613 52.1345L40.4412 52.697C40.3632 52.7932 40.2498 52.8773 40.2114 52.9876C39.8208 54.1064 39.4485 55.2313 39.0548 56.3495C39.0049 56.4909 38.8665 56.6024 38.7696 56.728L38.6143 54.792V54.792Z" fill="#C2C1A7"/>
<path fill-rule="evenodd" clip-rule="evenodd" d="M38.7691 56.7273C38.8666 56.6018 39.0049 56.4903 39.0543 56.3489C39.4479 55.2307 39.8209 54.1058 40.2109 52.987C40.2493 52.8767 40.3626 52.7932 40.4406 52.6963L40.2036 55.2776C40.1402 55.3507 40.0488 55.4147 40.0183 55.4994L39.2298 57.759C39.1743 57.9131 39.0683 58.0509 38.9854 58.1953C38.9117 58.099 38.7801 58.0058 38.774 57.9058C38.7508 57.5146 38.7673 57.1204 38.7691 56.7273V56.7273Z" fill="#CECDB7"/>
<path fill-rule="evenodd" clip-rule="evenodd" d="M38.9858 58.196C39.0687 58.0516 39.1747 57.9139 39.2302 57.7597L40.0187 55.5001C40.0492 55.4148 40.1412 55.3514 40.204 55.2783L40.2101 56.9724L39.6427 58.427L38.9858 58.196V58.196Z" fill="#DBDAC7"/>
<path fill-rule="evenodd" clip-rule="evenodd" d="M39.6431 58.427L40.2104 56.9724L40.3274 58.6933L39.6431 58.427V58.427Z" fill="#EBE9DC"/>
<path fill-rule="evenodd" clip-rule="evenodd" d="M40.6124 52.1344C40.5216 51.7408 40.6727 51.4288 40.9457 51.1582L41.1029 51.2655L40.6124 52.1344V52.1344Z" fill="#CECDB7"/>
<path fill-rule="evenodd" clip-rule="evenodd" d="M39.1475 44.8148L39.117 44.8093L39.0859 44.8142L39.1585 44.554L39.1475 44.8148V44.8148Z" fill="#4FAA41"/>
</svg>
