<svg width="78" height="78" viewBox="0 0 78 78" fill="none" xmlns="http://www.w3.org/2000/svg">
<rect width="78" height="78" fill="white"/>
<path d="M1.21936 55.1229H3.72267V45.237L7.5983 53.8554C8.05533 54.8987 8.68116 55.2673 9.90905 55.2673C11.1369 55.2673 11.739 54.8987 12.196 53.8554L16.0717 45.237V55.1229H18.575V45.2535C18.575 44.2907 18.1898 43.8245 17.3952 43.5844C15.4934 42.9909 14.2173 43.5046 13.6396 44.7885L9.83653 53.2942L6.15408 44.7879C5.60016 43.5046 4.30036 42.9909 2.3985 43.5838C1.60388 43.8245 1.21875 44.2901 1.21875 45.2529V55.1229H1.21936ZM20.6572 47.0755H23.1599V52.5221C23.1368 52.8177 23.255 53.5123 24.6261 53.5343C25.3256 53.5452 30.0263 53.5343 30.0702 53.5343V47.0487H32.579C32.5906 47.0487 32.5766 55.8932 32.5766 55.9297C32.59 58.1113 29.8703 58.5848 28.6162 58.6213H20.7114V56.937C20.7248 56.937 28.6108 56.9389 28.6303 56.9364C30.2421 56.7664 30.0513 55.9657 30.0507 55.6963V55.0394H24.7303C22.255 55.0169 20.6779 53.9365 20.6578 52.6933C20.6566 52.5794 20.712 47.1304 20.6572 47.0755V47.0755Z" fill="#00618A"/>
<path d="M34.5088 55.123H41.7067C42.5495 55.123 43.3685 54.9469 44.0181 54.6422C45.1009 54.1449 45.6305 53.4709 45.6305 52.5874V50.758C45.6305 50.0359 45.029 49.3613 43.8493 48.9128C43.2235 48.6715 42.4526 48.5442 41.7061 48.5442H38.6726C37.6617 48.5442 37.1803 48.2395 37.0602 47.5655C37.0365 47.4851 37.0365 47.4211 37.0365 47.3406V46.2011C37.0365 46.1371 37.0365 46.0725 37.0602 45.9927C37.1803 45.479 37.4454 45.3346 38.3363 45.2541L38.577 45.2383H45.7268V43.5698H38.6976C37.6867 43.5698 37.1571 43.6338 36.6757 43.7782C35.1834 44.2438 34.5326 44.9817 34.5326 46.2657V47.7258C34.5326 48.8494 35.8092 49.8123 37.9511 50.0371C38.1925 50.0524 38.4326 50.0694 38.6733 50.0694H41.2735C41.3697 50.0694 41.466 50.0694 41.5385 50.0847C42.3332 50.1486 42.6695 50.2937 42.9109 50.5819C42.9727 50.639 43.0218 50.7085 43.0548 50.7859C43.0879 50.8633 43.1043 50.9468 43.1028 51.031V52.4917C43.1028 52.6678 42.9828 52.8926 42.7421 53.0852C42.5257 53.2778 42.1644 53.4064 41.683 53.4386L41.4179 53.4545H34.5088V55.123ZM61.2488 52.2187C61.2488 53.9353 62.5248 54.8981 65.1 55.0913C65.3407 55.1071 65.5814 55.123 65.8221 55.123H72.3461V53.4545H65.7746C64.306 53.4545 63.7527 53.0852 63.7527 52.2022V43.5686H61.2494V52.2187H61.2488ZM47.2283 52.3052V46.3547C47.2283 44.8434 48.2898 43.9263 50.3885 43.6369C50.6121 43.6048 50.8378 43.5887 51.0637 43.5887H55.8162C56.0575 43.5887 56.2744 43.6046 56.5151 43.6369C58.6138 43.9263 59.676 44.8428 59.676 46.3547V52.3052C59.676 53.5325 59.225 54.1882 58.1861 54.616L60.6528 56.842H57.7455L55.7504 55.0407L53.7419 55.1681H51.0637C50.5662 55.1649 50.0714 55.0946 49.5926 54.959C48.0004 54.5252 47.2283 53.6885 47.2283 52.3052V52.3052ZM49.9302 52.1608C49.9302 52.2412 49.954 52.3223 49.9784 52.4186C50.1228 53.1102 50.7748 53.4959 51.7632 53.4959H54.0374L51.9485 51.6099H54.8558L56.6772 53.2552C57.0136 53.0755 57.2342 52.8025 57.3116 52.4509C57.3354 52.3704 57.3354 52.29 57.3354 52.2095V46.5009C57.3354 46.4369 57.3354 46.3559 57.3116 46.2754C57.1666 45.6319 56.5151 45.2627 55.5505 45.2627H51.7626C50.6536 45.2627 49.9296 45.7453 49.9296 46.5009V52.1608H49.9302Z" fill="#E48E00"/>
<path d="M74.5486 40.7989C73.01 40.7569 71.8345 40.9001 70.829 41.3236C70.5432 41.4442 70.088 41.4473 70.0417 41.805C70.1983 41.9701 70.2227 42.2157 70.3476 42.418C70.5877 42.8062 70.9929 43.3266 71.3543 43.599C71.7486 43.897 72.1556 44.2163 72.5797 44.4747C73.3323 44.9341 74.1733 45.1962 74.899 45.6556C75.3262 45.9274 75.7503 46.2687 76.1677 46.5752C76.3743 46.7257 76.512 46.9615 76.7808 47.056V47.0127C76.64 46.8336 76.6034 46.5874 76.4743 46.3997L75.9051 45.8305C75.3487 45.092 74.6431 44.4442 73.8917 43.9055C73.2933 43.4759 71.9539 42.8952 71.7041 42.1986L71.6602 42.1554C72.0843 42.1072 72.5816 41.9537 72.9728 41.8489C73.6309 41.6721 74.219 41.7178 74.8984 41.5423L75.8173 41.2791V41.1048C75.4743 40.7526 75.2287 40.2858 74.8545 39.9671C73.8753 39.1329 72.8052 38.2993 71.7041 37.6033C71.0935 37.2182 70.3385 36.9678 69.6907 36.6411C69.4738 36.5308 69.0911 36.4742 68.9466 36.2908C68.606 35.8575 68.4214 35.3084 68.1587 34.8033C67.5978 33.7119 67.0724 32.6027 66.5835 31.4773C66.252 30.7186 66.035 29.9703 65.6213 29.2896C63.6341 26.0228 61.4952 24.0508 58.182 22.113C57.477 21.7005 56.6281 21.5384 55.7317 21.3257L54.2875 21.238C53.9944 21.1155 53.6885 20.756 53.4125 20.5817C52.3144 19.8882 49.499 18.38 48.6861 20.3635C48.173 21.6152 49.454 22.8364 49.9116 23.4707C50.2327 23.9156 50.6447 24.414 50.8744 24.9143C51.0255 25.2434 51.0511 25.5731 51.1809 25.921C51.4984 26.7778 51.7757 27.7108 52.187 28.5023C52.3948 28.9033 52.6245 29.3256 52.8872 29.6839C53.048 29.9033 53.3247 30.0008 53.368 30.3402C53.098 30.718 53.0822 31.3055 52.9304 31.7838C52.2467 33.9404 52.5045 36.621 53.4996 38.217C53.8049 38.7075 54.524 39.7581 55.5124 39.3547C56.3771 39.0025 56.1845 37.9111 56.4319 36.9477C56.488 36.7301 56.4532 36.5692 56.5629 36.423V36.4669L57.3508 38.0421C57.934 38.9811 58.9681 39.9616 59.845 40.624C60.2996 40.9671 60.6579 41.5612 61.2454 41.7617V41.7172H61.2021C61.0875 41.5399 60.9102 41.4668 60.764 41.3236C60.4215 40.9878 60.0406 40.571 59.7579 40.1859C58.9602 39.1036 58.2558 37.9184 57.6135 36.685C57.307 36.0964 57.0407 35.4468 56.7823 34.8471C56.6824 34.6162 56.6836 34.2664 56.4764 34.1476C56.1924 34.5863 55.7762 34.9416 55.5568 35.4602C55.2071 36.2889 55.162 37.2999 55.0322 38.348L54.9444 38.3913C54.3344 38.2444 54.1205 37.6168 53.8939 37.0787C53.321 35.7179 53.2144 33.526 53.719 31.9593C53.8494 31.5535 54.4386 30.2768 54.1998 29.9021C54.0858 29.5285 53.7098 29.3128 53.5002 29.0264C53.2252 28.6432 52.9905 28.2325 52.8 27.8009C52.3308 26.74 52.112 25.5487 51.6191 24.4756C51.3826 23.9625 50.9841 23.4439 50.6563 22.9881C50.2937 22.4823 49.8872 22.1106 49.6057 21.5C49.5058 21.2831 49.3699 20.9351 49.5179 20.7121C49.5649 20.5616 49.6325 20.4988 49.7812 20.4494C50.0347 20.2538 50.7416 20.5146 51.006 20.6243C51.708 20.9162 52.2936 21.1935 52.8884 21.5871C53.1736 21.7767 53.4618 22.1423 53.8073 22.2434H54.201C54.8171 22.3848 55.5075 22.2867 56.0827 22.4616C57.1004 22.7712 58.012 23.252 58.8395 23.7748C61.3618 25.3677 63.4233 27.6346 64.8346 30.339C65.0613 30.7747 65.16 31.1897 65.3593 31.6516C65.7627 32.5827 66.2709 33.5413 66.6718 34.4523C67.0722 35.3608 67.4628 36.278 68.0289 37.0342C68.3263 37.4315 69.4756 37.6448 69.9978 37.8654C70.364 38.0202 70.9637 38.1816 71.3104 38.3901C71.9728 38.7898 72.6151 39.2657 73.236 39.7033C73.5462 39.9238 74.5011 40.4034 74.5486 40.7989V40.7989ZM54.9883 24.127C54.723 24.1227 54.4582 24.1522 54.2004 24.2148V24.258H54.2443C54.3972 24.5731 54.6672 24.7754 54.8567 25.046L55.2948 25.9649L55.3381 25.9216C55.6092 25.7309 55.733 25.4256 55.7317 24.9588C55.6227 24.8443 55.6068 24.7011 55.513 24.5652C55.3887 24.3823 55.1461 24.28 54.9883 24.127V24.127Z" fill="#00618A"/>
</svg>
