<svg width="78" height="91" viewBox="0 0 78 91" fill="none" xmlns="http://www.w3.org/2000/svg">
<path d="M78 45.1548C78 39.9317 71.5292 34.9818 61.6082 31.9122C63.8977 21.6911 62.8801 13.5591 58.3967 10.9556C57.3632 10.3449 56.1549 10.0556 54.8353 10.0556V13.6395C55.5667 13.6395 56.1549 13.7841 56.6478 14.0573C58.81 15.3109 59.7481 20.0839 59.0167 26.2231C58.8418 27.7338 58.5556 29.3248 58.2059 30.948C55.0897 30.1766 51.6873 29.5819 48.1101 29.1962C45.9637 26.2231 43.7379 23.5232 41.4961 21.1607C46.6792 16.2912 51.5442 13.6234 54.8512 13.6234V10.0396C50.479 10.0396 44.7554 13.1895 38.9682 18.6536C33.181 13.2216 27.4574 10.1038 23.0852 10.1038V13.6877C26.3763 13.6877 31.2572 16.3394 36.4403 21.1768C34.2144 23.5392 31.9886 26.2231 29.874 29.1962C26.2809 29.5819 22.8785 30.1766 19.7623 30.964C19.3967 29.3569 19.1264 27.798 18.9356 26.3034C18.1883 20.1643 19.1105 15.3912 21.2568 14.1216C21.7338 13.8323 22.3539 13.7037 23.0852 13.7037V10.1199C21.7497 10.1199 20.5414 10.4092 19.4921 11.0199C15.0245 13.6234 14.0228 21.7393 16.3282 31.9283C6.43905 35.0139 0 39.9478 0 45.1548C0 50.3779 6.47085 55.3277 16.3918 58.3973C14.1023 68.6185 15.1199 76.7504 19.6033 79.3539C20.6368 79.9646 21.8451 80.2539 23.1806 80.2539C27.5528 80.2539 33.2764 77.104 39.0636 71.6398C44.8508 77.0718 50.5744 80.1896 54.9466 80.1896C56.2821 80.1896 57.4904 79.9004 58.5397 79.2896C63.0073 76.6861 64.009 68.5703 61.7036 58.3812C71.5609 55.3117 78 50.3618 78 45.1548ZM57.2996 34.4354C56.7114 36.5086 55.98 38.646 55.1533 40.7834C54.5014 39.4978 53.8178 38.2121 53.0705 36.9264C52.3392 35.6407 51.5601 34.3872 50.7811 33.1658C53.0387 33.5033 55.2169 33.9211 57.2996 34.4354ZM50.0179 51.551C48.7778 53.7206 47.5059 55.7777 46.1863 57.6902C43.8174 57.8991 41.4166 58.0116 39 58.0116C36.5993 58.0116 34.1985 57.8991 31.8455 57.7062C30.5259 55.7938 29.2381 53.7528 27.998 51.5993C26.7896 49.4939 25.6926 47.3565 24.691 45.203C25.6767 43.0495 26.7896 40.8959 27.9821 38.7906C29.2222 36.621 30.4941 34.564 31.8137 32.6515C34.1826 32.4426 36.5834 32.3301 39 32.3301C41.4007 32.3301 43.8015 32.4426 46.1545 32.6354C47.4741 34.5479 48.7619 36.5889 50.002 38.7424C51.2104 40.8477 52.3074 42.9852 53.309 45.1387C52.3074 47.2922 51.2104 49.4457 50.0179 51.551ZM55.1533 49.4618C56.0118 51.6153 56.7432 53.7688 57.3473 55.8581C55.2646 56.3724 53.0705 56.8063 50.797 57.1438C51.576 55.9063 52.3551 54.6367 53.0864 53.3349C53.8178 52.0492 54.5014 50.7475 55.1533 49.4618ZM39.0318 66.6096C37.5532 65.0668 36.0746 63.3472 34.6119 61.4669C36.0428 61.5312 37.5055 61.5794 38.9841 61.5794C40.4786 61.5794 41.9572 61.5472 43.404 61.4669C41.9731 63.3472 40.4945 65.0668 39.0318 66.6096ZM27.203 57.1438C24.9454 56.8063 22.7672 56.3884 20.6845 55.8742C21.2727 53.801 22.0041 51.6635 22.8308 49.5261C23.4827 50.8118 24.1663 52.0975 24.9136 53.3831C25.6608 54.6688 26.424 55.9224 27.203 57.1438ZM38.9523 23.6999C40.4309 25.2428 41.9095 26.9624 43.3722 28.8427C41.9413 28.7784 40.4786 28.7302 39 28.7302C37.5055 28.7302 36.0269 28.7623 34.5801 28.8427C36.011 26.9624 37.4896 25.2428 38.9523 23.6999ZM27.1871 33.1658C26.4081 34.4032 25.629 35.6729 24.8977 36.9746C24.1663 38.2603 23.4827 39.546 22.8308 40.8317C21.9723 38.6781 21.2409 36.5246 20.6368 34.4354C22.7195 33.9372 24.9136 33.5033 27.1871 33.1658ZM12.7986 53.2867C7.17041 50.86 3.52956 47.6779 3.52956 45.1548C3.52956 42.6316 7.17041 39.4335 12.7986 37.0228C14.1659 36.4282 15.6604 35.8979 17.2026 35.3996C18.1088 38.5496 19.3013 41.8281 20.7799 45.1869C19.3172 48.5297 18.1406 51.7921 17.2503 54.926C15.6763 54.4278 14.1818 53.8813 12.7986 53.2867ZM21.3522 76.2522C19.19 74.9987 18.2519 70.2256 18.9833 64.0864C19.1582 62.5758 19.4444 60.9847 19.7941 59.3616C22.9103 60.133 26.3127 60.7276 29.8899 61.1133C32.0363 64.0864 34.2621 66.7864 36.5039 69.1488C31.3208 74.0184 26.4558 76.6861 23.1488 76.6861C22.4333 76.6701 21.8292 76.5254 21.3522 76.2522ZM59.0644 64.0061C59.8117 70.1452 58.8895 74.9183 56.7432 76.1879C56.2662 76.4772 55.6461 76.6058 54.9148 76.6058C51.6237 76.6058 46.7428 73.9541 41.5597 69.1167C43.7856 66.7542 46.0114 64.0704 48.126 61.0972C51.7191 60.7115 55.1215 60.1169 58.2377 59.3294C58.6033 60.9526 58.8895 62.5115 59.0644 64.0061ZM65.1855 53.2867C63.8182 53.8813 62.3237 54.4117 60.7815 54.9099C59.8753 51.76 58.6828 48.4815 57.2042 45.1226C58.6669 41.7798 59.8435 38.5174 60.7338 35.3836C62.3078 35.8818 63.8023 36.4282 65.2014 37.0228C70.8296 39.4495 74.4704 42.6316 74.4704 45.1548C74.4545 47.6779 70.8137 50.8761 65.1855 53.2867Z" fill="#61DAFB"/>
<path d="M38.9841 52.4992C42.9968 52.4992 46.2499 49.211 46.2499 45.1548C46.2499 41.0985 42.9968 37.8103 38.9841 37.8103C34.9713 37.8103 31.7183 41.0985 31.7183 45.1548C31.7183 49.211 34.9713 52.4992 38.9841 52.4992Z" fill="#61DAFB"/>
</svg>
