<svg width="78" height="78" viewBox="0 0 78 78" fill="none" xmlns="http://www.w3.org/2000/svg">
<g clip-path="url(#clip0_601_42)">
<path d="M54.0453 53.692C48.5609 64.9045 38.9571 72.4486 26.2517 74.9287C24.3036 75.406 22.3037 75.6394 20.2981 75.6234C12.9856 75.6234 6.28245 72.5766 3.02838 67.5858C-1.34084 60.9375 -2.82771 46.8426 11.5779 36.4162C11.8704 38.0067 12.4676 40.1883 12.8637 41.4801C10.0358 43.5811 7.72104 46.2958 6.09354 49.4203C3.41229 54.6853 3.71088 59.9442 6.88573 64.807C9.07948 68.0855 12.5529 70.0781 17.0196 70.6875C22.5987 71.3937 28.2585 70.3278 33.1985 67.6406C40.9437 63.57 46.1051 58.7072 49.481 52.0589C48.5264 51.0724 47.9614 49.7736 47.8906 48.4026C47.8395 46.9315 48.3742 45.5003 49.3773 44.4229C50.3804 43.3456 51.7699 42.7102 53.2409 42.6562H53.4481C54.8789 42.6491 56.2577 43.1922 57.2992 44.1733C58.3407 45.1543 58.9652 46.4982 59.0434 47.9269C59.1217 49.3556 58.6478 50.7596 57.7197 51.8486C56.7916 52.9376 55.4805 53.6281 54.0574 53.7773L54.0453 53.692ZM71.516 41.3827C78.9565 49.8164 79.1576 59.7431 76.2814 65.5017C73.6001 70.7606 66.5314 76.0256 57.0251 76.0256C52.5874 75.9351 48.2219 74.8853 44.2282 72.9483C45.6237 71.955 47.6042 70.3645 48.6949 69.3712C51.7746 70.7054 55.0889 71.4139 58.4449 71.4553C64.5996 71.4553 69.2614 68.5791 72.0401 63.3202C73.8256 59.8467 73.9292 55.7761 72.2412 51.608C70.17 46.3636 66.4843 41.9139 61.7173 38.9025C55.4631 34.6865 48.0901 32.439 40.5476 32.4492H38.7621C38.3458 33.411 37.6685 34.2369 36.8069 34.8336C35.9453 35.4302 34.9339 35.7737 33.8871 35.8251H33.6982C32.2505 35.8074 30.8666 35.2259 29.8407 34.2042C28.8148 33.1825 28.2276 31.8011 28.2038 30.3534C28.18 28.9057 28.7215 27.5058 29.7133 26.4509C30.7051 25.3961 32.069 24.7694 33.5154 24.7041H33.7165C34.7245 24.7048 35.7127 24.9833 36.5727 25.509C37.4327 26.0347 38.1312 26.7872 38.5915 27.6839H40.182C52.857 27.6839 63.9842 32.5467 71.516 41.3827V41.3827ZM21.0903 55.3983C20.9859 54.3864 21.2311 53.3692 21.7849 52.5159C16.2274 42.8878 13.2537 30.682 17.8179 17.9766C21.0903 8.42765 29.329 1.97437 38.2624 1.97437C47.7931 1.97437 57.7198 10.3167 58.9081 26.392C57.4212 25.8984 55.2518 25.1733 53.9478 24.9051C53.6248 19.6462 49.1824 6.54468 38.6585 6.73968C34.8865 6.84327 29.329 8.62874 26.471 12.2972C22.9358 16.6763 20.8793 22.063 20.5967 27.6839C19.9268 35.3911 21.735 43.1109 25.7581 49.7189C25.9802 49.6377 26.2169 49.6045 26.4528 49.6214H26.6478C28.1217 49.5947 29.5459 50.1547 30.607 51.1781C31.668 52.2014 32.2791 53.6044 32.3058 55.0784C32.3325 56.5523 31.7725 57.9765 30.7491 59.0375C29.7258 60.0986 28.3228 60.7097 26.8489 60.7364H26.6478C25.2098 60.7313 23.8293 60.1715 22.794 59.1736C21.7586 58.1757 21.1483 56.8168 21.0903 55.38V55.3983Z" fill="#764ABC"/>
</g>
<defs>
<clipPath id="clip0_601_42">
<rect width="78" height="78" fill="white"/>
</clipPath>
</defs>
</svg>
