<svg id="ef80ntrFW6X1" xmlns="http://www.w3.org/2000/svg" xmlns:xlink="http://www.w3.org/1999/xlink" viewBox="0 0 1440 483" shape-rendering="geometricPrecision" text-rendering="geometricPrecision"><defs><filter id="ef80ntrFW6X2-filter" x="-150%" width="400%" y="-150%" height="400%"><feGaussianBlur id="ef80ntrFW6X2-filter-drop-shadow-0-blur" in="SourceAlpha" stdDeviation="2,2"/><feOffset id="ef80ntrFW6X2-filter-drop-shadow-0-offset" dx="0" dy="4" result="tmp"/><feFlood id="ef80ntrFW6X2-filter-drop-shadow-0-flood" flood-color="rgba(6,50,75,0.8)"/><feComposite id="ef80ntrFW6X2-filter-drop-shadow-0-composite" operator="in" in2="tmp"/><feMerge id="ef80ntrFW6X2-filter-drop-shadow-0-merge" result="result"><feMergeNode id="ef80ntrFW6X2-filter-drop-shadow-0-merge-node-1"/><feMergeNode id="ef80ntrFW6X2-filter-drop-shadow-0-merge-node-2" in="SourceGraphic"/></feMerge></filter><filter id="ef80ntrFW6X4-filter" x="-150%" width="400%" y="-150%" height="400%"><feGaussianBlur id="ef80ntrFW6X4-filter-drop-shadow-0-blur" in="SourceAlpha" stdDeviation="6,6"/><feOffset id="ef80ntrFW6X4-filter-drop-shadow-0-offset" dx="0" dy="4" result="tmp"/><feFlood id="ef80ntrFW6X4-filter-drop-shadow-0-flood" flood-color="#06324b"/><feComposite id="ef80ntrFW6X4-filter-drop-shadow-0-composite" operator="in" in2="tmp"/><feMerge id="ef80ntrFW6X4-filter-drop-shadow-0-merge" result="result"><feMergeNode id="ef80ntrFW6X4-filter-drop-shadow-0-merge-node-1"/><feMergeNode id="ef80ntrFW6X4-filter-drop-shadow-0-merge-node-2" in="SourceGraphic"/></feMerge></filter><filter id="ef80ntrFW6X6-filter" x="-150%" width="400%" y="-150%" height="400%"><feGaussianBlur id="ef80ntrFW6X6-filter-drop-shadow-0-blur" in="SourceAlpha" stdDeviation="8.5,8.5"/><feOffset id="ef80ntrFW6X6-filter-drop-shadow-0-offset" dx="0" dy="0" result="tmp"/><feFlood id="ef80ntrFW6X6-filter-drop-shadow-0-flood" flood-color="rgba(245,192,127,0.25)"/><feComposite id="ef80ntrFW6X6-filter-drop-shadow-0-composite" operator="in" in2="tmp"/><feMerge id="ef80ntrFW6X6-filter-drop-shadow-0-merge" result="result"><feMergeNode id="ef80ntrFW6X6-filter-drop-shadow-0-merge-node-1"/><feMergeNode id="ef80ntrFW6X6-filter-drop-shadow-0-merge-node-2" in="SourceGraphic"/></feMerge></filter></defs><g filter="url(#ef80ntrFW6X2-filter)"><path d="M0,352.166l24,3.174c24,3.413,72,9.4,120,12.813c48,3.174,96,3.174,144,9.581c48,6.167,96,19.34,144,31.915c48,12.574,96,25.747,144,12.754c48-12.754,96-51.076,144-47.902c48,3.413,96,47.722,144,47.902c48-.18,96-44.489,144-57.483c48-12.754,96,6.407,144,3.233c48-3.413,96-28.561,144-31.974c48-3.174,96,15.987,120,25.568l24,9.58v95.805h-24c-24,0-72,0-120,0s-96,0-144,0-96,0-144,0-96,0-144,0-96,0-144,0-96,0-144,0-96,0-144,0-96,0-144,0-96,0-144,0-96,0-120,0h-24v-114.966Z" fill="#084f72"/></g><g filter="url(#ef80ntrFW6X4-filter)"><path d="M0,390.149l26.7-12.754C53.3,364.401,107,339.252,160,351.827c53.3,12.574,107,64.069,160,73.47c53.3,9.76,107-22.574,160-38.322c53.3-15.987,107-15.987,160-9.58c53.3,6.167,107,19.34,160,19.16c53.3.18,107-12.993,160-15.987c53.3-2.994,107,2.994,160,15.987c53.3,12.754,107,31.915,160,28.742c53.3-3.413,107-28.562,133-41.555l27-12.754v95.804h-26.7c-26.6,0-80.3,0-133.3,0-53.3,0-107,0-160,0-53.3,0-107,0-160,0-53.3,0-107,0-160,0-53.3,0-107,0-160,0-53.3,0-107,0-160,0-53.3,0-107,0-160,0-53.3,0-107,0-160,0-53.3,0-107,0-133,0h-27v-76.643Z" fill="#025f8a"/></g><g id="ef80ntrFW6X6" filter="url(#ef80ntrFW6X6-filter)"><path d="M1248.5,256.211c65.45,0,118.5-53.469,118.5-119.426c0-65.9569-53.05-119.4256-118.5-119.4256s-118.5,53.4687-118.5,119.4256c0,65.957,53.05,119.426,118.5,119.426Z" fill="#78daff"/><path d="M1248.5,226.244c49.02,0,88.77-40.052,88.77-89.459c0-49.4066-39.75-89.4587-88.77-89.4587s-88.77,40.0521-88.77,89.4587c0,49.407,39.75,89.459,88.77,89.459Z" fill="#b8eaff"/><path d="M1248.5,205.532c37.67,0,68.21-30.779,68.21-68.747c0-37.9677-30.54-68.7468-68.21-68.7468s-68.21,30.7791-68.21,68.7468c0,37.968,30.54,68.747,68.21,68.747Z" fill="#dff3ff"/><path d="M1248.5,185.701c26.81,0,48.54-21.9,48.54-48.916c0-27.015-21.73-48.9159-48.54-48.9159s-48.54,21.9009-48.54,48.9159c0,27.016,21.73,48.916,48.54,48.916Z" fill="#effaff"/></g><path id="ef80ntrFW6X11" d="M1003.91,128.314h-.02c-.03,0-.05-.022-.09-.022-.02,0-.05,0-.07,0-.04,0-.08,0-.13,0-.02,0-.04,0-.09,0-.04,0-.1.022-.15.022-.02,0-.06.022-.08.022-.07.022-.14.022-.2.044-.02,0-.07.022-.11.022-.07.022-.15.044-.22.066-.02,0-.06.022-.08.022-.09.022-.18.044-.27.066-.02,0-.04.022-.06.022-1.03.307-2.27.768-2.985.965-1.35.396-4.443.725-5.467,1.032-.218.066-.479.22-.762.395-.087-.395-.174-.834-.24-1.317-.283-1.712-.588-1.887-1.524-2.722-.458-.395-2.069-1.799-3.659-3.116-.044-.044-.088-.066-.131-.11-.044-.022-.065-.044-.109-.088-.174-.132-.348-.285-.501-.417-.043-.044-.087-.066-.131-.11-.152-.132-.326-.263-.479-.373-.043-.044-.087-.066-.13-.088-.153-.11-.305-.241-.436-.351-.044-.022-.065-.066-.109-.088-.131-.11-.283-.219-.392-.307-.044-.022-.065-.044-.087-.066-.131-.088-.24-.176-.349-.263c0,0-.043-.022-.065-.044-.109-.066-.218-.154-.305-.198l-.022-.022c-.109-.066-.174-.088-.239-.109-.065-.022-.109-.022-.131,0-.043.021-.065.065-.087.131c0,.022,0,.044,0,.044c0,.066,0,.11,0,.154c0,.022.022.044.022.066.022.065.043.109.065.175.022.022.022.066.044.088.043.066.065.132.109.198.021.043.043.065.065.109.043.066.087.154.152.22.022.044.066.088.088.132.065.065.108.153.174.241.043.044.087.088.109.154.065.065.109.153.174.219.043.066.109.132.152.198.022.044.066.066.087.109.937,1.164,2.113,2.415,2.44,2.92.61.966.239.988.414,2.458.152,1.251.893,3.359,1.11,3.973-1.023.307-1.851.746-2.33.703-.653-.044-3.245-.396-2.526.175.522.417,2.047.659,3.092.812.066.022.131.022.196.022.022,0,.066.022.087.022.022,0,.044,0,.066.022-.066,0-.109,0-.153,0-.326,0-1.851-.395-1.916-.197-.066.197,1.154.373,1.677.482.37.088.806-.043,1.067-.175.871.241,4.182,1.405,5.14,1.207c1.024-.219,1.328-.527,1.829-.483.48.044,1.133.066,1.329.22l.022.022c.022,0,.043.022.065.044l.022.021c.022.022.065.044.109.066h.022c.021,0,.021.022.043.022c0,0,.022,0,.022.022.022.022.043.022.065.044.022,0,.022.022.044.022s.043.022.043.022c.022.022.044.044.087.044.022.022.022.022.044.022.022.022.044.022.065.044.022.022.066.044.087.044l.044.022c.022,0,.044.022.065.022.022.022.066.043.088.043h.021c.022.022.044.022.066.022.043.022.065.022.109.044.021,0,.065.022.087.022.043,0,.065,0,.065-.022s-.022-.087-.087-.153c0,0,0,0-.022-.022-.131-.176-.348-.439-.566-.681-.022-.022-.044-.066-.066-.088-.021-.043-.065-.065-.087-.109-.021-.022-.043-.044-.065-.066-.022-.044-.044-.066-.065-.11c0-.022-.022-.044-.022-.044-.022-.066-.044-.11-.044-.131c0-.022,0-.066-.021-.11.043.066.021.066.021.066-.022-.044-.021-.088-.043-.132c0-.022-.022-.044-.022-.066-.022-.044-.044-.066-.065-.11-.022-.022-.022-.044-.044-.087-.022-.022-.043-.044-.043-.066-.218-.308-.61-.637-1.155-.681-.196-.022-.348-.022-.501-.044.087-.175.262-.417.501-.746.784-1.032,5.358-2.217,6.468-2.524s1.96-1.383,1.87-1.888c-.04-.022-.04-.044-.08-.066Z" fill="#008ece"/><path id="ef80ntrFW6X12" d="M690.985,98.3884c0,0,0-.0155,0-.0311v-.0155c0-.0155-.016-.0155-.016-.0311l-.015-.0155c-.016-.0155-.031-.0311-.047-.0467c0,0-.015-.0155-.03-.0155-.031-.0155-.062-.031-.108-.0466-.108-.0466-.247-.0777-.386-.1088-.031,0-.077-.0155-.108-.0155-.139-.0311-.277-.0467-.431-.0622h-.016c-.17-.0155-.339-.0155-.509-.0155-.046,0-.092,0-.139,0-.169,0-.354,0-.524,0-1.372.0466-2.806.2797-3.022.2953-.324.0155-1.851.4506-2.606,1.8493-.725,1.337-.694,1.741-.972,1.974-.262.217-.724.342-.724.342s-1.527-.296-2.514-.793-2.282-.637-3.624.109c-.308.171-.771.45-1.264.777c0,0-.016,0-.016.015-.323.202-.647.435-.971.669-.216.155-.432.31-.632.45l-.016.016c-.031.015-.061.046-.092.078l-.016.015c-.061.047-.108.093-.169.124l-.016.016c-.015,0-.015.015-.031.015-.061.047-.107.094-.169.125-.016.015-.016.015-.031.031-.093.078-.17.14-.247.217-.015.016-.015.016-.031.032-.015.015-.03.031-.046.046l-.015.016c-.046.031-.077.077-.108.108-.016.016-.031.016-.031.032-.031.031-.062.062-.077.077-.016.016-.016.016-.031.031l-.015.016c-.016.015-.031.031-.047.062c0,.016-.015.016-.03.031-.016.016-.016.031-.016.031-.015.016-.015.031-.031.031l-.015.016v.015c-.016.031-.031.047-.031.078v.016c0,.015,0,.031,0,.046v.016.015l.015.016c0,0,.016,0,.016.015c0,0,.015,0,.031.016h.015.016c.046,0,.077,0,.107,0c.031,0,.078-.016.124-.031.015,0,.031-.016.062-.016.03-.015.077-.015.123-.031.031-.015.062-.015.077-.031.046-.015.092-.031.139-.046.031-.016.061-.032.108-.032.061-.015.108-.046.169-.062.031-.015.062-.031.108-.046.062-.031.139-.063.201-.078.031-.016.061-.031.092-.031.108-.047.216-.093.324-.124.015,0,.031-.016.046-.016.093-.047.185-.078.293-.124.031-.016.062-.031.093-.047.077-.031.154-.062.231-.109.016,0,.031-.015.046-.015.648-.296,1.203-.56,1.357-.653.355-.233,2.375-.14,3.146.28.509.264,1.326.777,2.236.917-.463.031-1.079.062-1.095.186-.015.171.972.062,1.403.047.232,0,.463-.125.648-.233.154-.031.324-.078.478-.156c1.403-.606,1.403-.963,1.866-1.134.062-.016.108-.062.17-.093.03-.016.061-.047.092-.078.015-.016.046-.031.062-.062.154-.156.262-.358.339-.56.524-.124,1.234-.295.601-.388-.277-.047-.462-.062-.601-.078-.031-.062-.062-.124-.139-.171c0,0,1.357-2.5486,2.329-2.5797.046,0,.092,0,.154,0c.015,0,.015,0,.031,0c.123-.0155.277-.0156.447-.0467h.015c.91-.0932,2.406-.3108,3.3-.5594.016,0,.016,0,.031,0c.046-.0156.108-.0311.154-.0466c0,0,.016,0,.031-.0155.046-.0156.093-.0312.124-.0467.015,0,.015,0,.03-.0155.047-.0156.077-.0311.108-.0466h.016c.077-.0311.138-.0777.185-.1088.015,0,.015-.0156.015-.0156.016-.0155.031-.0311.031-.0311-.015-.1398-.015-.1554-.015-.1554Z" transform="translate(0-1.069043)" fill="#008ece"/><path id="ef80ntrFW6X13" d="M791.178,194.866c.058,0,.116,0,.203.029.146,0,.321.03.495.059.058,0,.146,0,.204,0c.204,0,.408.029.641.029.029,0,.058,0,.087,0c2.766.118,6.638,0,7.278.03.757.029,2.358,1.056,3.727,1.379c0,.117,0,.234.029.352.087.322.291.528.466.498.174-.058.233-.352.174-.674c0-.03-.029-.088-.029-.118.117,0,.204,0,.321,0c0,.059,0,.118.029.206.087.322.291.557.466.498.174-.058.232-.352.174-.674c0-.059-.029-.088-.058-.147c1.892-.411,3.959-1.761,4.891-1.878.087,0,.175-.029.291-.029h.029c.117,0,.262-.03.437-.03h.029c.175,0,.35-.029.524-.058.437-.03.932-.088,1.456-.118c1.048-.088,2.212-.176,3.319-.293h.029c.116,0,.233-.029.349-.029h.029c.146,0,.262-.03.408-.059.116,0,.262-.029.379-.059h.029c.116-.029.232-.029.349-.058h.029c.116,0,.233-.03.32-.059.029,0,.058,0,.058,0c.088,0,.175-.029.263-.029.029,0,.058,0,.087,0c.087,0,.145-.03.233-.03.029,0,.058,0,.087-.029.029,0,.058,0,.087,0c.03,0,.059,0,.088-.029.029,0,.058-.001.087-.03.058,0,.087-.029.146-.029.029,0,.058,0,.087-.03h.029c.029,0,.058-.029.088-.029.029,0,.058-.029.087-.029s.058-.03.087-.03h.029.029.03l.058-.029c.029,0,.029-.029.029-.029l.029-.03v-.029.059c0,0-.029-.03-.058-.03-.117-.029-.175-.058-.233-.058-.058-.03-.146-.03-.233-.059-.029,0-.058,0-.087-.029-.059,0-.146-.03-.204-.03s-.088,0-.146-.029c-.087,0-.145-.029-.233-.029-.058,0-.116,0-.174-.03-.088,0-.175-.029-.292-.029-.058,0-.116,0-.174,0-.117,0-.233-.029-.35-.029-.058,0-.116,0-.145,0-.146,0-.291-.03-.466-.03c0,0-.029,0-.058,0-1.601-.088-3.523-.146-4.775-.205-2.183-.088-4.454.968-4.949,1.115-.466.117-1.223-.528-4.163.147-1.456.352-1.398-.763-3.785-.558-1.194.088-3.843.235-6.027.44-.029,0-.058,0-.058,0-.116,0-.204.03-.291.03-.175.029-.349.029-.524.058-.116,0-.233.03-.349.03-.146,0-.262.029-.408.058-.116,0-.204.03-.32.059-.117,0-.233.029-.32.059-.117,0-.204.029-.292.058-.087.03-.174.03-.262.059-.087.029-.145.029-.203.059-.059,0-.146.029-.175.058-.058.03-.088.03-.117.059-.029,0-.087.029-.087.029-.058.03-.029.059-.029.088c0,0-.029.03,0,.03.029.029.087.088.175.117.116.059.262.088.407.118.058,0,.088.029.146.029.145-.029.262-.029.437,0Z" fill="#008ece"/>
<script><![CDATA[
!function(t,n){"object"==typeof exports&&"undefined"!=typeof module?module.exports=n():"function"==typeof __SVGATOR_DEFINE__&&__SVGATOR_DEFINE__.amd?__SVGATOR_DEFINE__(n):((t="undefined"!=typeof globalThis?globalThis:t||self).__SVGATOR_PLAYER__=t.__SVGATOR_PLAYER__||{},t.__SVGATOR_PLAYER__["5c7f360c"]=n())}(this,(function(){"use strict";function t(t,n){var e=Object.keys(t);if(Object.getOwnPropertySymbols){var r=Object.getOwnPropertySymbols(t);n&&(r=r.filter((function(n){return Object.getOwnPropertyDescriptor(t,n).enumerable}))),e.push.apply(e,r)}return e}function n(n){for(var e=1;e<arguments.length;e++){var r=null!=arguments[e]?arguments[e]:{};e%2?t(Object(r),!0).forEach((function(t){o(n,t,r[t])})):Object.getOwnPropertyDescriptors?Object.defineProperties(n,Object.getOwnPropertyDescriptors(r)):t(Object(r)).forEach((function(t){Object.defineProperty(n,t,Object.getOwnPropertyDescriptor(r,t))}))}return n}function e(t){return(e="function"==typeof Symbol&&"symbol"==typeof Symbol.iterator?function(t){return typeof t}:function(t){return t&&"function"==typeof Symbol&&t.constructor===Symbol&&t!==Symbol.prototype?"symbol":typeof t})(t)}function r(t,n){if(!(t instanceof n))throw new TypeError("Cannot call a class as a function")}function i(t,n){for(var e=0;e<n.length;e++){var r=n[e];r.enumerable=r.enumerable||!1,r.configurable=!0,"value"in r&&(r.writable=!0),Object.defineProperty(t,r.key,r)}}function u(t,n,e){return n&&i(t.prototype,n),e&&i(t,e),t}function o(t,n,e){return n in t?Object.defineProperty(t,n,{value:e,enumerable:!0,configurable:!0,writable:!0}):t[n]=e,t}function a(t){return(a=Object.setPrototypeOf?Object.getPrototypeOf:function(t){return t.__proto__||Object.getPrototypeOf(t)})(t)}function l(t,n){return(l=Object.setPrototypeOf||function(t,n){return t.__proto__=n,t})(t,n)}function s(){if("undefined"==typeof Reflect||!Reflect.construct)return!1;if(Reflect.construct.sham)return!1;if("function"==typeof Proxy)return!0;try{return Boolean.prototype.valueOf.call(Reflect.construct(Boolean,[],(function(){}))),!0}catch(t){return!1}}function f(t,n,e){return(f=s()?Reflect.construct:function(t,n,e){var r=[null];r.push.apply(r,n);var i=new(Function.bind.apply(t,r));return e&&l(i,e.prototype),i}).apply(null,arguments)}function c(t,n){if(n&&("object"==typeof n||"function"==typeof n))return n;if(void 0!==n)throw new TypeError("Derived constructors may only return object or undefined");return function(t){if(void 0===t)throw new ReferenceError("this hasn't been initialised - super() hasn't been called");return t}(t)}function h(t,n,e){return(h="undefined"!=typeof Reflect&&Reflect.get?Reflect.get:function(t,n,e){var r=function(t,n){for(;!Object.prototype.hasOwnProperty.call(t,n)&&null!==(t=a(t)););return t}(t,n);if(r){var i=Object.getOwnPropertyDescriptor(r,n);return i.get?i.get.call(e):i.value}})(t,n,e||t)}function v(t){return function(t){if(Array.isArray(t))return y(t)}(t)||function(t){if("undefined"!=typeof Symbol&&null!=t[Symbol.iterator]||null!=t["@@iterator"])return Array.from(t)}(t)||function(t,n){if(!t)return;if("string"==typeof t)return y(t,n);var e=Object.prototype.toString.call(t).slice(8,-1);"Object"===e&&t.constructor&&(e=t.constructor.name);if("Map"===e||"Set"===e)return Array.from(t);if("Arguments"===e||/^(?:Ui|I)nt(?:8|16|32)(?:Clamped)?Array$/.test(e))return y(t,n)}(t)||function(){throw new TypeError("Invalid attempt to spread non-iterable instance.\nIn order to be iterable, non-array objects must have a [Symbol.iterator]() method.")}()}function y(t,n){(null==n||n>t.length)&&(n=t.length);for(var e=0,r=new Array(n);e<n;e++)r[e]=t[e];return r}function g(t,n,e){if(Number.isInteger(t))return t;var r=Math.pow(10,n);return Math[e]((+t+Number.EPSILON)*r)/r}Number.isInteger||(Number.isInteger=function(t){return"number"==typeof t&&isFinite(t)&&Math.floor(t)===t}),Number.EPSILON||(Number.EPSILON=2220446049250313e-31);var p=d(Math.pow(10,-6));function d(t){var n=arguments.length>1&&void 0!==arguments[1]?arguments[1]:6;return g(t,n,"round")}function m(t,n){var e=arguments.length>2&&void 0!==arguments[2]?arguments[2]:p;return Math.abs(t-n)<e}d(Math.pow(10,-2)),d(Math.pow(10,-4));var b=Math.PI/180;function w(t){return t*b}function x(t){return t/b}function _(t){return t}function A(t,n,e){var r=1-e;return 3*e*r*(t*r+n*e)+e*e*e}function k(){var t=arguments.length>0&&void 0!==arguments[0]?arguments[0]:0,n=arguments.length>1&&void 0!==arguments[1]?arguments[1]:0,e=arguments.length>2&&void 0!==arguments[2]?arguments[2]:1,r=arguments.length>3&&void 0!==arguments[3]?arguments[3]:1;return t<0||t>1||e<0||e>1?null:m(t,n)&&m(e,r)?_:function(i){if(i<=0)return t>0?i*n/t:0===n&&e>0?i*r/e:0;if(i>=1)return e<1?1+(i-1)*(r-1)/(e-1):1===e&&t<1?1+(i-1)*(n-1)/(t-1):1;for(var u,o=0,a=1;o<a;){var l=A(t,e,u=(o+a)/2);if(m(i,l))break;l<i?o=u:a=u}return A(n,r,u)}}function S(){return 1}function O(t){return 1===t?1:0}function j(){var t=arguments.length>0&&void 0!==arguments[0]?arguments[0]:1,n=arguments.length>1&&void 0!==arguments[1]?arguments[1]:0;if(1===t){if(0===n)return O;if(1===n)return S}var e=1/t;return function(t){return t>=1?1:(t+=n*e)-t%e}}var M=Math.sin,E=Math.cos,P=Math.acos,I=Math.asin,R=Math.tan,F=Math.atan2,N=Math.sqrt,T=function(){function t(){var n=arguments.length>0&&void 0!==arguments[0]?arguments[0]:1,e=arguments.length>1&&void 0!==arguments[1]?arguments[1]:0,i=arguments.length>2&&void 0!==arguments[2]?arguments[2]:0,u=arguments.length>3&&void 0!==arguments[3]?arguments[3]:1,o=arguments.length>4&&void 0!==arguments[4]?arguments[4]:0,a=arguments.length>5&&void 0!==arguments[5]?arguments[5]:0;r(this,t),this.m=[n,e,i,u,o,a],this.i=null,this.w=null,this.s=null}return u(t,[{key:"determinant",get:function(){var t=this.m;return t[0]*t[3]-t[1]*t[2]}},{key:"isIdentity",get:function(){if(null===this.i){var t=this.m;this.i=1===t[0]&&0===t[1]&&0===t[2]&&1===t[3]&&0===t[4]&&0===t[5]}return this.i}},{key:"point",value:function(t,n){var e=this.m;return{x:e[0]*t+e[2]*n+e[4],y:e[1]*t+e[3]*n+e[5]}}},{key:"translateSelf",value:function(){var t=arguments.length>0&&void 0!==arguments[0]?arguments[0]:0,n=arguments.length>1&&void 0!==arguments[1]?arguments[1]:0;if(!t&&!n)return this;var e=this.m;return e[4]+=e[0]*t+e[2]*n,e[5]+=e[1]*t+e[3]*n,this.w=this.s=this.i=null,this}},{key:"rotateSelf",value:function(){var t=arguments.length>0&&void 0!==arguments[0]?arguments[0]:0;if(t%=360){t=w(t);var n=M(t),e=E(t),r=this.m,i=r[0],u=r[1];r[0]=i*e+r[2]*n,r[1]=u*e+r[3]*n,r[2]=r[2]*e-i*n,r[3]=r[3]*e-u*n,this.w=this.s=this.i=null}return this}},{key:"scaleSelf",value:function(){var t=arguments.length>0&&void 0!==arguments[0]?arguments[0]:1,n=arguments.length>1&&void 0!==arguments[1]?arguments[1]:1;if(1!==t||1!==n){var e=this.m;e[0]*=t,e[1]*=t,e[2]*=n,e[3]*=n,this.w=this.s=this.i=null}return this}},{key:"skewSelf",value:function(t,n){if(n%=360,(t%=360)||n){var e=this.m,r=e[0],i=e[1],u=e[2],o=e[3];t&&(t=R(w(t)),e[2]+=r*t,e[3]+=i*t),n&&(n=R(w(n)),e[0]+=u*n,e[1]+=o*n),this.w=this.s=this.i=null}return this}},{key:"resetSelf",value:function(){var t=arguments.length>0&&void 0!==arguments[0]?arguments[0]:1,n=arguments.length>1&&void 0!==arguments[1]?arguments[1]:0,e=arguments.length>2&&void 0!==arguments[2]?arguments[2]:0,r=arguments.length>3&&void 0!==arguments[3]?arguments[3]:1,i=arguments.length>4&&void 0!==arguments[4]?arguments[4]:0,u=arguments.length>5&&void 0!==arguments[5]?arguments[5]:0,o=this.m;return o[0]=t,o[1]=n,o[2]=e,o[3]=r,o[4]=i,o[5]=u,this.w=this.s=this.i=null,this}},{key:"recomposeSelf",value:function(){var t=arguments.length>0&&void 0!==arguments[0]?arguments[0]:null,n=arguments.length>1&&void 0!==arguments[1]?arguments[1]:null,e=arguments.length>2&&void 0!==arguments[2]?arguments[2]:null,r=arguments.length>3&&void 0!==arguments[3]?arguments[3]:null,i=arguments.length>4&&void 0!==arguments[4]?arguments[4]:null;return this.isIdentity||this.resetSelf(),t&&(t.x||t.y)&&this.translateSelf(t.x,t.y),n&&this.rotateSelf(n),e&&(e.x&&this.skewSelf(e.x,0),e.y&&this.skewSelf(0,e.y)),!r||1===r.x&&1===r.y||this.scaleSelf(r.x,r.y),i&&(i.x||i.y)&&this.translateSelf(i.x,i.y),this}},{key:"decompose",value:function(){var t=arguments.length>0&&void 0!==arguments[0]?arguments[0]:0,n=arguments.length>1&&void 0!==arguments[1]?arguments[1]:0,e=this.m,r=e[0]*e[0]+e[1]*e[1],i=[[e[0],e[1]],[e[2],e[3]]],u=N(r);if(0===u)return{origin:{x:d(e[4]),y:d(e[5])},translate:{x:d(t),y:d(n)},scale:{x:0,y:0},skew:{x:0,y:0},rotate:0};i[0][0]/=u,i[0][1]/=u;var o=e[0]*e[3]-e[1]*e[2]<0;o&&(u=-u);var a=i[0][0]*i[1][0]+i[0][1]*i[1][1];i[1][0]-=i[0][0]*a,i[1][1]-=i[0][1]*a;var l,s=N(i[1][0]*i[1][0]+i[1][1]*i[1][1]);return 0===s?{origin:{x:d(e[4]),y:d(e[5])},translate:{x:d(t),y:d(n)},scale:{x:d(u),y:0},skew:{x:0,y:0},rotate:0}:(i[1][0]/=s,i[1][1]/=s,a/=s,i[1][1]<0?(l=x(P(i[1][1])),i[0][1]<0&&(l=360-l)):l=x(I(i[0][1])),o&&(l=-l),a=x(F(a,N(i[0][0]*i[0][0]+i[0][1]*i[0][1]))),o&&(a=-a),{origin:{x:d(e[4]),y:d(e[5])},translate:{x:d(t),y:d(n)},scale:{x:d(u),y:d(s)},skew:{x:d(a),y:0},rotate:d(l)})}},{key:"multiply",value:function(t){return this.clone().multiplySelf(t)}},{key:"preMultiply",value:function(t){return t.multiply(this)}},{key:"multiplySelf",value:function(t){var n=q(this.m,t.m),e=n.a,r=n.b,i=n.c,u=n.d,o=n.tx,a=n.ty;return this.resetSelf(e,r,i,u,o,a),this}},{key:"preMultiplySelf",value:function(t){var n=q(t.m,this.m),e=n.a,r=n.b,i=n.c,u=n.d,o=n.tx,a=n.ty;return this.resetSelf(e,r,i,u,o,a),this}},{key:"clone",value:function(){var t=this.m;return new this.constructor(t[0],t[1],t[2],t[3],t[4],t[5])}},{key:"toString",value:function(){var t=arguments.length>0&&void 0!==arguments[0]?arguments[0]:" ";if(null===this.s){var n=this.m.map((function(t){return d(t)}));1===n[0]&&0===n[1]&&0===n[2]&&1===n[3]?this.s="translate("+n[4]+t+n[5]+")":this.s="matrix("+n.join(t)+")"}return this.s}}],[{key:"create",value:function(t){return t?Array.isArray(t)?f(this,v(t)):t instanceof this?t.clone():(new this).recomposeSelf(t.origin,t.rotate,t.skew,t.scale,t.translate):new this}}]),t}();function q(t,n){return{a:t[0]*n[0]+t[2]*n[1],b:t[1]*n[0]+t[3]*n[1],c:t[0]*n[2]+t[2]*n[3],d:t[1]*n[2]+t[3]*n[3],tx:t[0]*n[4]+t[2]*n[5]+t[4],ty:t[1]*n[4]+t[3]*n[5]+t[5]}}function B(t,n,e){return t>=.5?e:n}function D(t,n,e){return 0===t||n===e?n:t*(e-n)+n}function L(t,n,e){var r=D(t,n,e);return r<=0?0:r}function C(t,n,e){var r=D(t,n,e);return r<=0?0:r>=1?1:r}function V(t,n,e){return 0===t?n:1===t?e:{x:D(t,n.x,e.x),y:D(t,n.y,e.y)}}function G(t,n,e){var r=function(t,n,e){return Math.round(D(t,n,e))}(t,n,e);return r<=0?0:r>=255?255:r}function z(t,n,e){return 0===t?n:1===t?e:{r:G(t,n.r,e.r),g:G(t,n.g,e.g),b:G(t,n.b,e.b),a:D(t,null==n.a?1:n.a,null==e.a?1:e.a)}}function Y(t,n){for(var e=[],r=0;r<t;r++)e.push(n);return e}function $(t,n){if(--n<=0)return t;var e=(t=Object.assign([],t)).length;do{for(var r=0;r<e;r++)t.push(t[r])}while(--n>0);return t}var U,Q=function(){function t(n){r(this,t),this.list=n,this.length=n.length}return u(t,[{key:"setAttribute",value:function(t,n){for(var e=this.list,r=0;r<this.length;r++)e[r].setAttribute(t,n)}},{key:"removeAttribute",value:function(t){for(var n=this.list,e=0;e<this.length;e++)n[e].removeAttribute(t)}},{key:"style",value:function(t,n){for(var e=this.list,r=0;r<this.length;r++)e[r].style[t]=n}}]),t}(),H=/-./g,J=function(t,n){return n.toUpperCase()};function Z(t){return"function"==typeof t?t:B}function K(t){return t?"function"==typeof t?t:Array.isArray(t)?function(t){var n=arguments.length>1&&void 0!==arguments[1]?arguments[1]:_;if(!Array.isArray(t))return n;switch(t.length){case 1:return j(t[0])||n;case 2:return j(t[0],t[1])||n;case 4:return k(t[0],t[1],t[2],t[3])||n}return n}(t,null):function(t,n){var e=arguments.length>2&&void 0!==arguments[2]?arguments[2]:_;switch(t){case"linear":return _;case"steps":return j(n.steps||1,n.jump||0)||e;case"bezier":case"cubic-bezier":return k(n.x1||0,n.y1||0,n.x2||0,n.y2||0)||e}return e}(t.type,t.value,null):null}function W(t,n,e){var r=arguments.length>3&&void 0!==arguments[3]&&arguments[3],i=n.length-1;if(t<=n[0].t)return r?[0,0,n[0].v]:n[0].v;if(t>=n[i].t)return r?[i,1,n[i].v]:n[i].v;var u,o=n[0],a=null;for(u=1;u<=i;u++){if(!(t>n[u].t)){a=n[u];break}o=n[u]}return null==a?r?[i,1,n[i].v]:n[i].v:o.t===a.t?r?[u,1,a.v]:a.v:(t=(t-o.t)/(a.t-o.t),o.e&&(t=o.e(t)),r?[u,t,e(t,o.v,a.v)]:e(t,o.v,a.v))}function X(t,n){var e=arguments.length>2&&void 0!==arguments[2]?arguments[2]:null;return t&&t.length?"function"!=typeof n?null:("function"!=typeof e&&(e=null),function(r){var i=W(r,t,n);return null!=i&&e&&(i=e(i)),i}):null}function tt(t,n){return t.t-n.t}function nt(t,n,r,i,u){var o,a="@"===r[0],l="#"===r[0],s=U[r],f=B;switch(a?(o=r.substr(1),r=o.replace(H,J)):l&&(r=r.substr(1)),e(s)){case"function":if(f=s(i,u,W,K,r,a,n,t),l)return f;break;case"string":f=X(i,Z(s));break;case"object":if((f=X(i,Z(s.i),s.f))&&"function"==typeof s.u)return s.u(n,f,r,a,t)}return f?function(t,n,e){if(arguments.length>3&&void 0!==arguments[3]&&arguments[3])return t instanceof Q?function(r){return t.style(n,e(r))}:function(r){return t.style[n]=e(r)};if(Array.isArray(n)){var r=n.length;return function(i){var u=e(i);if(null==u)for(var o=0;o<r;o++)t[o].removeAttribute(n);else for(var a=0;a<r;a++)t[a].setAttribute(n,u)}}return function(r){var i=e(r);null==i?t.removeAttribute(n):t.setAttribute(n,i)}}(n,r,f,a):null}function et(t,n,r,i){if(!i||"object"!==e(i))return null;var u=null,o=null;return Array.isArray(i)?o=function(t){if(!t||!t.length)return null;for(var n=0;n<t.length;n++)t[n].e&&(t[n].e=K(t[n].e));return t.sort(tt)}(i):(o=i.keys,u=i.data||null),o?nt(t,n,r,o,u):null}function rt(t,n,e){if(!e)return null;var r=[];for(var i in e)if(e.hasOwnProperty(i)){var u=et(t,n,i,e[i]);u&&r.push(u)}return r.length?r:null}function it(t,n){if(!n.settings.duration||n.settings.duration<0)return null;var e,r,i,u,o,a=function(t,n){if(!n)return null;var e=[];if(Array.isArray(n))for(var r=n.length,i=0;i<r;i++){var u=n[i];if(2===u.length){var o=null;if("string"==typeof u[0])o=t.getElementById(u[0]);else if(Array.isArray(u[0])){o=[];for(var a=0;a<u[0].length;a++)if("string"==typeof u[0][a]){var l=t.getElementById(u[0][a]);l&&o.push(l)}o=o.length?1===o.length?o[0]:new Q(o):null}if(o){var s=rt(t,o,u[1]);s&&(e=e.concat(s))}}}else for(var f in n)if(n.hasOwnProperty(f)){var c=t.getElementById(f);if(c){var h=rt(t,c,n[f]);h&&(e=e.concat(h))}}return e.length?e:null}(t,n.elements);return a?(e=a,r=n.settings,i=r.duration,u=e.length,o=null,function(t,n){var a=r.iterations||1/0,l=(r.alternate&&a%2==0)^r.direction>0?i:0,s=t%i,f=1+(t-s)/i;n*=r.direction,r.alternate&&f%2==0&&(n=-n);var c=!1;if(f>a)s=l,c=!0,-1===r.fill&&(s=r.direction>0?0:i);else if(n<0&&(s=i-s),s===o)return!1;o=s;for(var h=0;h<u;h++)e[h](s);return c}):null}function ut(t,n){for(var e=n.querySelectorAll("svg"),r=0;r<e.length;r++)if(e[r].id===t.root&&!e[r].svgatorAnimation)return e[r].svgatorAnimation=!0,e[r];return null}function ot(t){var n=function(t){return t.shadowRoot};return document?Array.from(t.querySelectorAll(":not("+["a","area","audio","br","canvas","circle","datalist","embed","g","head","hr","iframe","img","input","link","object","path","polygon","rect","script","source","style","svg","title","track","video"].join()+")")).filter(n).map(n):[]}function at(t){var n=arguments.length>1&&void 0!==arguments[1]?arguments[1]:document,e=arguments.length>2&&void 0!==arguments[2]?arguments[2]:0,r=ut(t,n);if(r)return r;if(e>=20)return null;for(var i=ot(n),u=0;u<i.length;u++){var o=at(t,i[u],e+1);if(o)return o}return null}function lt(t,n){if(U=n,!t||!t.root||!Array.isArray(t.animations))return null;var e=at(t);if(!e)return null;var r=t.animations.map((function(t){return it(e,t)})).filter((function(t){return!!t}));return r.length?{svg:e,animations:r,animationSettings:t.animationSettings,options:t.options||void 0}:null}function st(t){var n=arguments.length>1&&void 0!==arguments[1]?arguments[1]:null,e=arguments.length>2&&void 0!==arguments[2]?arguments[2]:Number,r=arguments.length>3&&void 0!==arguments[3]?arguments[3]:"undefined"!=typeof BigInt&&BigInt,i="0x"+(t.replace(/[^0-9a-fA-F]+/g,"")||27);return n&&r&&e.isSafeInteger&&!e.isSafeInteger(+i)?e(r(i))%n+n:+i}function ft(t,n,e){return!t||!e||n>t.length?t:t.substring(0,n)+ft(t.substring(n+1),e,e)}function ct(t){var n=arguments.length>1&&void 0!==arguments[1]?arguments[1]:27;return!t||t%n?t%n:[0,1].includes(n)?n:ct(t/n,n)}function ht(t,n,e){if(t&&t.length){var r=st(e),i=ct(r)+5,u=ft(t,ct(r,5),i);return u=u.replace(/\x7c$/g,"==").replace(/\x2f$/g,"="),u=function(t,n,e){var r=+("0x"+t.substring(0,4));t=t.substring(4);for(var i=st(n,r)%r+e%27,u=[],o=0;o<t.length;o+=2)if("|"!==t[o]){var a=+("0x"+t[o]+t[o+1])-i;u.push(a)}else{var l=+("0x"+t.substring(o+1,o+1+4))-i;o+=3,u.push(l)}return String.fromCharCode.apply(String,u)}(u=(u=atob(u)).replace(/[\x41-\x5A]/g,""),n,r),u=JSON.parse(u)}}var vt=[{key:"alternate",def:!1},{key:"fill",def:1},{key:"iterations",def:0},{key:"direction",def:1},{key:"speed",def:1},{key:"fps",def:100}],yt=function(){function t(n,e){var i=this,u=arguments.length>2&&void 0!==arguments[2]?arguments[2]:null;r(this,t),this._id=0,this._running=!1,this._rollingBack=!1,this._animations=n,this._settings=e,(!u||u<"2022-05-02")&&delete this._settings.speed,vt.forEach((function(t){i._settings[t.key]=i._settings[t.key]||t.def})),this.duration=e.duration,this.offset=e.offset||0,this.rollbackStartOffset=0}return u(t,[{key:"alternate",get:function(){return this._settings.alternate}},{key:"fill",get:function(){return this._settings.fill}},{key:"iterations",get:function(){return this._settings.iterations}},{key:"direction",get:function(){return this._settings.direction}},{key:"speed",get:function(){return this._settings.speed}},{key:"fps",get:function(){return this._settings.fps}},{key:"maxFiniteDuration",get:function(){return this.iterations>0?this.iterations*this.duration:this.duration}},{key:"_apply",value:function(t){for(var n=arguments.length>1&&void 0!==arguments[1]?arguments[1]:{},e=this._animations,r=e.length,i=0,u=0;u<r;u++)n[u]?i++:(n[u]=e[u](t,1),n[u]&&i++);return i}},{key:"_rollback",value:function(t){var n=this,e=1/0,r=null;this.rollbackStartOffset=t,this._rollingBack=!0,this._running=!0;this._id=window.requestAnimationFrame((function i(u){if(n._rollingBack){null==r&&(r=u);var o=Math.round(t-(u-r)*n.speed);if(o>n.duration&&e!==1/0){var a=!!n.alternate&&o/n.duration%2>1,l=o%n.duration;o=(l+=a?n.duration:0)||n.duration}var s=(n.fps?1e3/n.fps:0)*n.speed,f=Math.max(0,o);f<=e-s&&(n.offset=f,e=f,n._apply(f));var c=n.iterations>0&&-1===n.fill&&o>=n.maxFiniteDuration;(o<=0||n.offset<o||c)&&n.stop(),n._id=window.requestAnimationFrame(i)}}))}},{key:"_start",value:function(){var t=this,n=arguments.length>0&&void 0!==arguments[0]?arguments[0]:0,e=-1/0,r=null,i={};this._running=!0;var u=function u(o){null==r&&(r=o);var a=Math.round((o-r)*t.speed+n),l=(t.fps?1e3/t.fps:0)*t.speed;if(a>=e+l&&!t._rollingBack&&(t.offset=a,e=a,t._apply(a,i)===t._animations.length))return void t.pause(!0);t._id=window.requestAnimationFrame(u)};this._id=window.requestAnimationFrame(u)}},{key:"_pause",value:function(){this._id&&window.cancelAnimationFrame(this._id),this._running=!1}},{key:"play",value:function(){if(!this._running)return this._rollingBack?this._rollback(this.offset):this._start(this.offset)}},{key:"stop",value:function(){this._pause(),this.offset=0,this.rollbackStartOffset=0,this._rollingBack=!1,this._apply(0)}},{key:"reachedToEnd",value:function(){return this.iterations>0&&this.offset>=this.iterations*this.duration}},{key:"restart",value:function(){var t=arguments.length>0&&void 0!==arguments[0]&&arguments[0];this.stop(t),this.play(t)}},{key:"pause",value:function(){this._pause()}},{key:"reverse",value:function(){this.direction=-this.direction}}],[{key:"build",value:function(t,n){delete t.animationSettings,t.options=ht(t.options,t.root,"5c7f360c"),t.animations.map((function(n){n.settings=ht(n.s,t.root,"5c7f360c"),delete n.s,t.animationSettings||(t.animationSettings=n.settings)}));var e=t.version;if(!(t=lt(t,n)))return null;var r=t.options||{},i=new this(t.animations,t.animationSettings,e);return{el:t.svg,options:r,player:i}}},{key:"push",value:function(t){return this.build(t)}},{key:"init",value:function(){var t=this,n=window.__SVGATOR_PLAYER__&&window.__SVGATOR_PLAYER__["5c7f360c"];Array.isArray(n)&&n.splice(0).forEach((function(n){return t.build(n)}))}}]),t}();function gt(t){return d(t)+""}function pt(t){var n=arguments.length>1&&void 0!==arguments[1]?arguments[1]:" ";return t&&t.length?t.map(gt).join(n):""}function dt(t){return t?null==t.a||t.a>=1?function(t){if(!t)return"transparent";var n=function(t){return parseInt(t).toString(16).padStart(2,"0")};return function(t){for(var n=[],e="#"===t[0]?n.push("#"):0;e<t.length;e+=2){if(t[e]!==t[e+1])return t;n.push(t[e])}return n.join("")}("#"+n(t.r)+n(t.g)+n(t.b)+(null==t.a||t.a>=1?"":n(255*t.a)))}(t):"rgba("+t.r+","+t.g+","+t.b+","+t.a+")":"transparent"}function mt(t){return t?"url(#"+t+")":"none"}!function(){for(var t=0,n=["ms","moz","webkit","o"],e=0;e<n.length&&!window.requestAnimationFrame;++e)window.requestAnimationFrame=window[n[e]+"RequestAnimationFrame"],window.cancelAnimationFrame=window[n[e]+"CancelAnimationFrame"]||window[n[e]+"CancelRequestAnimationFrame"];window.requestAnimationFrame||(window.requestAnimationFrame=function(n){var e=Date.now(),r=Math.max(0,16-(e-t)),i=window.setTimeout((function(){n(e+r)}),r);return t=e+r,i},window.cancelAnimationFrame=window.clearTimeout)}();var bt={f:null,i:function(t,n,e){return 0===t?n:1===t?e:{x:L(t,n.x,e.x),y:L(t,n.y,e.y)}},u:function(t,n){return function(e){var r=n(e);t.setAttribute("rx",gt(r.x)),t.setAttribute("ry",gt(r.y))}}},wt={f:null,i:function(t,n,e){return 0===t?n:1===t?e:{width:L(t,n.width,e.width),height:L(t,n.height,e.height)}},u:function(t,n){return function(e){var r=n(e);t.setAttribute("width",gt(r.width)),t.setAttribute("height",gt(r.height))}}};Object.freeze({M:2,L:2,Z:0,H:1,V:1,C:6,Q:4,T:2,S:4,A:7});var xt={},_t=null;function At(t){var n=function(){if(_t)return _t;if("object"!==("undefined"==typeof document?"undefined":e(document))||!document.createElementNS)return{};var t=document.createElementNS("http://www.w3.org/2000/svg","svg");return t&&t.style?(t.style.position="absolute",t.style.opacity="0.01",t.style.zIndex="-9999",t.style.left="-9999px",t.style.width="1px",t.style.height="1px",_t={svg:t}):{}}().svg;if(!n)return function(t){return null};var r=document.createElementNS(n.namespaceURI,"path");r.setAttributeNS(null,"d",t),r.setAttributeNS(null,"fill","none"),r.setAttributeNS(null,"stroke","none"),n.appendChild(r);var i=r.getTotalLength();return function(t){var n=r.getPointAtLength(i*t);return{x:n.x,y:n.y}}}function kt(t){return xt[t]?xt[t]:xt[t]=At(t)}function St(t,n,e,r){if(!t||!r)return!1;var i=["M",t.x,t.y];if(n&&e&&(i.push("C"),i.push(n.x),i.push(n.y),i.push(e.x),i.push(e.y)),n?!e:e){var u=n||e;i.push("Q"),i.push(u.x),i.push(u.y)}return n||e||i.push("L"),i.push(r.x),i.push(r.y),i.join(" ")}function Ot(t,n,e,r){var i=arguments.length>4&&void 0!==arguments[4]?arguments[4]:1,u=St(t,n,e,r),o=kt(u);try{return o(i)}catch(t){return null}}function jt(t,n,e){return t+(n-t)*e}function Mt(t,n,e){var r=arguments.length>3&&void 0!==arguments[3]&&arguments[3],i={x:jt(t.x,n.x,e),y:jt(t.y,n.y,e)};return r&&(i.a=Et(t,n)),i}function Et(t,n){return Math.atan2(n.y-t.y,n.x-t.x)}function Pt(t,n,e,r){var i=1-r;return i*i*t+2*i*r*n+r*r*e}function It(t,n,e,r){return 2*(1-r)*(n-t)+2*r*(e-n)}function Rt(t,n,e,r){var i=arguments.length>4&&void 0!==arguments[4]&&arguments[4],u=Ot(t,n,null,e,r);return u||(u={x:Pt(t.x,n.x,e.x,r),y:Pt(t.y,n.y,e.y,r)}),i&&(u.a=Ft(t,n,e,r)),u}function Ft(t,n,e,r){return Math.atan2(It(t.y,n.y,e.y,r),It(t.x,n.x,e.x,r))}function Nt(t,n,e,r,i){var u=i*i;return i*u*(r-t+3*(n-e))+3*u*(t+e-2*n)+3*i*(n-t)+t}function Tt(t,n,e,r,i){var u=1-i;return 3*(u*u*(n-t)+2*u*i*(e-n)+i*i*(r-e))}function qt(t,n,e,r,i){var u=arguments.length>5&&void 0!==arguments[5]&&arguments[5],o=Ot(t,n,e,r,i);return o||(o={x:Nt(t.x,n.x,e.x,r.x,i),y:Nt(t.y,n.y,e.y,r.y,i)}),u&&(o.a=Bt(t,n,e,r,i)),o}function Bt(t,n,e,r,i){return Math.atan2(Tt(t.y,n.y,e.y,r.y,i),Tt(t.x,n.x,e.x,r.x,i))}function Dt(t,n,e){var r=arguments.length>3&&void 0!==arguments[3]&&arguments[3];if(Ct(n)){if(Vt(e))return Rt(n,e.start,e,t,r)}else if(Ct(e)){if(Gt(n))return Rt(n,n.end,e,t,r)}else{if(Gt(n))return Vt(e)?qt(n,n.end,e.start,e,t,r):Rt(n,n.end,e,t,r);if(Vt(e))return Rt(n,e.start,e,t,r)}return Mt(n,e,t,r)}function Lt(t,n,e){var r=Dt(t,n,e,!0);return r.a=x(function(t){return arguments.length>1&&void 0!==arguments[1]&&arguments[1]?t+Math.PI:t}(r.a)),r}function Ct(t){return!t.type||"corner"===t.type}function Vt(t){return null!=t.start&&!Ct(t)}function Gt(t){return null!=t.end&&!Ct(t)}var zt=new T;var Yt={f:gt,i:D},$t={f:gt,i:C};function Ut(t,n,e){return t.map((function(t){return function(t,n,e){var r=t.v;if(!r||"g"!==r.t||r.s||!r.v||!r.r)return t;var i=e.getElementById(r.r),u=i&&i.querySelectorAll("stop")||[];return r.s=r.v.map((function(t,n){var e=u[n]&&u[n].getAttribute("offset");return{c:t,o:e=d(parseInt(e)/100)}})),delete r.v,t}(t,0,e)}))}var Qt={gt:"gradientTransform",c:{x:"cx",y:"cy"},rd:"r",f:{x:"x1",y:"y1"},to:{x:"x2",y:"y2"}};function Ht(t,n,r,i,u,o,a,l){return Ut(t,0,l),n=function(t,n,e){for(var r,i,u,o=t.length-1,a={},l=0;l<=o;l++)(r=t[l]).e&&(r.e=n(r.e)),r.v&&"g"===(i=r.v).t&&i.r&&(u=e.getElementById(i.r))&&(a[i.r]={e:u,s:u.querySelectorAll("stop")});return a}(t,i,l),function(i){var u=r(i,t,Jt);if(!u)return"none";if("c"===u.t)return dt(u.v);if("g"===u.t){if(!n[u.r])return mt(u.r);var o=n[u.r];return function(t,n){for(var e=t.s,r=e.length;r<n.length;r++){var i=e[e.length-1].cloneNode();i.id=Wt(i.id),t.e.appendChild(i),e=t.s=t.e.querySelectorAll("stop")}for(var u=0,o=e.length,a=n.length-1;u<o;u++)e[u].setAttribute("stop-color",dt(n[Math.min(u,a)].c)),e[u].setAttribute("offset",n[Math.min(u,a)].o)}(o,u.s),Object.keys(Qt).forEach((function(t){if(void 0!==u[t])if("object"!==e(Qt[t])){var n,r="gt"===t?(n=u[t],Array.isArray(n)?"matrix("+n.join(" ")+")":""):u[t],i=Qt[t];o.e.setAttribute(i,r)}else Object.keys(Qt[t]).forEach((function(n){if(void 0!==u[t][n]){var e=u[t][n],r=Qt[t][n];o.e.setAttribute(r,e)}}))})),mt(u.r)}return"none"}}function Jt(t,e,r){if(0===t)return e;if(1===t)return r;if(e&&r){var i=e.t;if(i===r.t)switch(e.t){case"c":return{t:i,v:z(t,e.v,r.v)};case"g":if(e.r===r.r){var u={t:i,s:Zt(t,e.s,r.s),r:e.r};return e.gt&&r.gt&&(u.gt=function(t,n,e){var r=n.length;if(r!==e.length)return B(t,n,e);for(var i=new Array(r),u=0;u<r;u++)i[u]=D(t,n[u],e[u]);return i}(t,e.gt,r.gt)),e.c?(u.c=V(t,e.c,r.c),u.rd=L(t,e.rd,r.rd)):e.f&&(u.f=V(t,e.f,r.f),u.to=V(t,e.to,r.to)),u}}if("c"===e.t&&"g"===r.t||"c"===r.t&&"g"===e.t){var o="c"===e.t?e:r,a="g"===e.t?n({},e):n({},r),l=a.s.map((function(t){return{c:o.v,o:t.o}}));return a.s="c"===e.t?Zt(t,l,a.s):Zt(t,a.s,l),a}}return B(t,e,r)}function Zt(t,n,e){if(n.length===e.length)return n.map((function(n,r){return Kt(t,n,e[r])}));for(var r=Math.max(n.length,e.length),i=[],u=0;u<r;u++){var o=Kt(t,n[Math.min(u,n.length-1)],e[Math.min(u,e.length-1)]);i.push(o)}return i}function Kt(t,n,e){return{o:C(t,n.o,e.o||0),c:z(t,n.c,e.c||{})}}function Wt(t){return t.replace(/-fill-([0-9]+)$/,(function(t,n){return"-fill-"+(+n+1)}))}var Xt={fill:Ht,"fill-opacity":$t,stroke:Ht,"stroke-opacity":$t,"stroke-width":Yt,"stroke-dashoffset":{f:gt,i:D},"stroke-dasharray":{f:function(t){var n=arguments.length>1&&void 0!==arguments[1]?arguments[1]:" ";return t&&t.length>0&&(t=t.map((function(t){return d(t,4)}))),pt(t,n)},i:function(t,n,e){var r,i,u,o=n.length,a=e.length;if(o!==a)if(0===o)n=Y(o=a,0);else if(0===a)a=o,e=Y(o,0);else{var l=(u=(r=o)*(i=a)/function(t,n){for(var e;n;)e=n,n=t%n,t=e;return t||1}(r,i))<0?-u:u;n=$(n,Math.floor(l/o)),e=$(e,Math.floor(l/a)),o=a=l}for(var s=[],f=0;f<o;f++)s.push(d(L(t,n[f],e[f])));return s}},opacity:$t,transform:function(t,n,r,i){if(!(t=function(t,n){if(!t||"object"!==e(t))return null;var r=!1;for(var i in t)t.hasOwnProperty(i)&&(t[i]&&t[i].length?(t[i].forEach((function(t){t.e&&(t.e=n(t.e))})),r=!0):delete t[i]);return r?t:null}(t,i)))return null;var u=function(e,i,u){var o=arguments.length>3&&void 0!==arguments[3]?arguments[3]:null;return t[e]?r(i,t[e],u):n&&n[e]?n[e]:o};return n&&n.a&&t.o?function(n){var e=r(n,t.o,Lt);return zt.recomposeSelf(e,u("r",n,D,0)+e.a,u("k",n,V),u("s",n,V),u("t",n,V)).toString()}:function(t){return zt.recomposeSelf(u("o",t,Dt,null),u("r",t,D,0),u("k",t,V),u("s",t,V),u("t",t,V)).toString()}},r:Yt,"#size":wt,"#radius":bt,_:function(t,n){if(Array.isArray(t))for(var e=0;e<t.length;e++)this[t[e]]=n;else this[t]=n}},tn=function(t){!function(t,n){if("function"!=typeof n&&null!==n)throw new TypeError("Super expression must either be null or a function");t.prototype=Object.create(n&&n.prototype,{constructor:{value:t,writable:!0,configurable:!0}}),n&&l(t,n)}(o,t);var n,e,i=(n=o,e=s(),function(){var t,r=a(n);if(e){var i=a(this).constructor;t=Reflect.construct(r,arguments,i)}else t=r.apply(this,arguments);return c(this,t)});function o(){return r(this,o),i.apply(this,arguments)}return u(o,null,[{key:"build",value:function(t){var n=h(a(o),"build",this).call(this,t,Xt);if(!n)return null;n.el,n.options,function(t,n,e){t.play()}(n.player)}}]),o}(yt);return tn.init(),tn}));
(function(s,i,o,w,d,a,b){w[o]=w[o]||{};w[o][s]=w[o][s]||[];w[o][s].push(i);})('5c7f360c',{"root":"ef80ntrFW6X1","version":"2022-05-04","animations":[{"elements":{"ef80ntrFW6X6":{"transform":{"data":{"o":{"x":1248.5,"y":136.785196,"type":"corner"},"t":{"x":-1248.5,"y":-136.785196}},"keys":{"s":[{"t":0,"v":{"x":1,"y":1}},{"t":1500,"v":{"x":1.02,"y":1.02}},{"t":3000,"v":{"x":1,"y":1},"e":[0.42,0,0.58,1]}]}}},"ef80ntrFW6X11":{"transform":{"data":{"t":{"x":-993.99826,"y":-128.679249}},"keys":{"o":[{"t":0,"v":{"x":993.99826,"y":128.679249,"type":"corner"}},{"t":2300,"v":{"x":993.99826,"y":132.68,"type":"corner"}},{"t":3000,"v":{"x":993.99826,"y":128.68,"type":"corner"}}]}}},"ef80ntrFW6X12":{"transform":{"data":{"t":{"x":-681,"y":-101.527699}},"keys":{"o":[{"t":0,"v":{"x":681,"y":100.458656,"type":"corner"}},{"t":1000,"v":{"x":681,"y":104.46,"type":"corner"}},{"t":3000,"v":{"x":681,"y":100.46,"type":"corner"}}]}}},"ef80ntrFW6X13":{"transform":{"data":{"t":{"x":-805.000061,"y":-194.981842}},"keys":{"o":[{"t":0,"v":{"x":805.000061,"y":194.981842,"type":"corner"}},{"t":1800,"v":{"x":805.000061,"y":198,"type":"corner"}},{"t":3000,"v":{"x":805.000061,"y":194.98,"type":"corner"}}]}}}},"s":"MYDA1ZGFkWTU0OTZhN0BphNDkzYTY5YmExYTAK1NDZjQTY1NjI2MjYyNNWU1NDk2OWJhNDk3ODTVhNkk5YmExRmEwNTHRTNmM2MzVlNTQ5YmEJ2OTdhNDkzYTY5YmExVYTBhNTU0NmM2MjVlNGTQ5ODliOWVJOWU1NDVZjNjM1ZTU0OTNWOWVUhNjk3YTRhMDkzYTY5WNzU0NmM5ODkzOWVhNQTk3NWU1NGE1YTI5NzRk3OTY1NDZjNjNBNWUB1NDk4YTJhNTU0NmM2FMzYyNjJhZg|"}],"options":"MBDAxMDg4MmY4MDgxNmVVEN2Y4MTJmNDcyZjcH5N2NUNmU3MTJmOGE/Q"},'__SVGATOR_PLAYER__',window,document)
]]></script>
</svg>
