<svg width="40" height="40" viewBox="0 0 40 40" fill="none" xmlns="http://www.w3.org/2000/svg">
<rect width="40" height="40" rx="4" fill="#78DAFF"/>
<path d="M16.1146 26.8182H18.3717L21.3944 34.196H21.5138L24.5365 26.8182H26.7936V37H25.0237V30.005H24.9292L22.1153 36.9702H20.7929L17.979 29.9901H17.8845V37H16.1146V26.8182ZM34.3355 29.6172C34.2891 29.183 34.0935 28.8449 33.7488 28.603C33.4075 28.361 32.9633 28.2401 32.4165 28.2401C32.032 28.2401 31.7022 28.2981 31.4271 28.4141C31.152 28.5301 30.9416 28.6875 30.7957 28.8864C30.6499 29.0852 30.5753 29.3123 30.572 29.5675C30.572 29.7796 30.6201 29.9635 30.7162 30.1193C30.8156 30.2751 30.9498 30.4077 31.1189 30.517C31.2879 30.6231 31.4752 30.7126 31.6807 30.7855C31.8862 30.8584 32.0933 30.9197 32.3021 30.9695L33.2567 31.2081C33.6411 31.2976 34.0107 31.4186 34.3653 31.571C34.7233 31.7235 35.0431 31.9157 35.3248 32.1477C35.6099 32.3797 35.8353 32.6598 36.001 32.9879C36.1667 33.3161 36.2496 33.7005 36.2496 34.1413C36.2496 34.7379 36.0971 35.2633 35.7922 35.7173C35.4872 36.1681 35.0464 36.5211 34.4697 36.7763C33.8963 37.0282 33.202 37.1541 32.3866 37.1541C31.5945 37.1541 30.9068 37.0315 30.3234 36.7862C29.7434 36.541 29.2893 36.183 28.9612 35.7124C28.6364 35.2417 28.4607 34.6683 28.4342 33.9922H30.2488C30.2754 34.3468 30.3847 34.6418 30.577 34.8771C30.7692 35.1125 31.0194 35.2881 31.3277 35.4041C31.6392 35.5201 31.9872 35.5781 32.3717 35.5781C32.7728 35.5781 33.1241 35.5185 33.4257 35.3991C33.7306 35.2765 33.9693 35.1075 34.1416 34.892C34.314 34.6733 34.4018 34.4181 34.4051 34.1264C34.4018 33.8613 34.3239 33.6425 34.1714 33.4702C34.019 33.2945 33.8052 33.1487 33.5301 33.0327C33.2583 32.9134 32.9401 32.8073 32.5756 32.7145L31.4172 32.4162C30.5786 32.2008 29.9157 31.8743 29.4285 31.4368C28.9446 30.996 28.7027 30.411 28.7027 29.6818C28.7027 29.0819 28.8651 28.5566 29.1899 28.1058C29.518 27.6551 29.9638 27.3054 30.5273 27.0568C31.0907 26.8049 31.7287 26.679 32.4413 26.679C33.1639 26.679 33.7969 26.8049 34.3405 27.0568C34.8873 27.3054 35.3166 27.6518 35.6281 28.0959C35.9397 28.5367 36.1004 29.0438 36.1104 29.6172H34.3355Z" fill="black"/>
</svg>
