<svg width="78" height="64" viewBox="0 0 78 64" fill="none" xmlns="http://www.w3.org/2000/svg">
<g clip-path="url(#clip0_319_56)">
<path fill-rule="evenodd" clip-rule="evenodd" d="M16.2008 0.741943C11.7503 0.741943 8.45706 4.67955 8.60453 8.94978C8.74605 13.0523 8.56218 18.3657 7.23892 22.6988C5.91094 27.044 3.66661 29.7975 0 30.151V34.1412C3.66661 34.4954 5.91094 37.2476 7.23877 41.5934C8.56218 45.9265 8.7459 51.2399 8.60437 55.3424C8.45691 59.612 11.7501 63.5502 16.2015 63.5502H61.8051C66.2557 63.5502 69.5483 59.6126 69.4008 55.3424C69.2593 51.2399 69.4432 45.9265 70.7664 41.5934C72.0944 37.2476 74.3332 34.4943 78 34.1412V30.151C74.3334 29.7968 72.0946 27.0446 70.7664 22.6988C69.443 18.3663 69.2593 13.0523 69.4008 8.94978C69.5483 4.68017 66.2557 0.741943 61.8051 0.741943H16.2002H16.2008ZM52.8814 39.4046C52.8814 45.2845 48.5425 48.8505 41.342 48.8505H29.0847C28.7341 48.8505 28.3978 48.7097 28.1499 48.4591C27.902 48.2085 27.7627 47.8686 27.7627 47.5142V16.7782C27.7627 16.4238 27.902 16.0839 28.1499 15.8332C28.3978 15.5826 28.7341 15.4418 29.0847 15.4418H41.2722C47.2762 15.4418 51.2166 18.7293 51.2166 23.7766C51.2166 27.3192 48.5658 30.4907 45.1888 31.0463V31.2311C49.7859 31.7408 52.8814 34.9592 52.8814 39.4046ZM40.0055 19.678H33.0165V29.6568H38.903C43.4535 29.6568 45.9626 27.8046 45.9626 24.4939C45.9621 21.3912 43.8049 19.678 40.0055 19.678ZM33.0165 33.6161V44.6129H40.2626C45.0005 44.6129 47.5101 42.6912 47.5101 39.0798C47.5101 35.4683 44.9301 33.6155 39.9579 33.6155H33.0165V33.6161Z" fill="#7952B3"/>
</g>
<defs>
<clipPath id="clip0_319_56">
<rect width="78" height="62.8233" fill="white" transform="translate(0 0.735352)"/>
</clipPath>
</defs>
</svg>
