<svg width="78" height="60" viewBox="0 0 78 60" fill="none" xmlns="http://www.w3.org/2000/svg">
<g clip-path="url(#clip0_319_71)">
<path d="M67.1226 34.551C64.3957 34.5665 62.0343 35.2285 60.0539 36.2143C59.3226 34.7513 58.5914 33.473 58.4696 32.5184C58.3325 31.4097 58.165 30.732 58.3325 29.4078C58.5 28.0833 59.2617 26.2046 59.2617 26.0506C59.2463 25.912 59.0939 25.2344 57.525 25.219C55.956 25.2036 54.6 25.527 54.4476 25.9428C54.2953 26.3586 53.9906 27.3133 53.7925 28.2989C53.5183 29.7464 50.6543 34.8744 49.0242 37.5692C48.491 36.5221 48.034 35.5981 47.9424 34.8588C47.8054 33.7502 47.6377 33.0725 47.8054 31.7483C47.973 30.4238 48.7347 28.5453 48.7347 28.3913C48.7195 28.2527 48.5672 27.5751 46.9982 27.5597C45.4289 27.5443 44.0732 27.8677 43.9208 28.2835C43.7685 28.6992 43.6009 29.6848 43.2658 30.6396C42.9457 31.5943 39.1371 40.1563 38.1469 42.3892C37.6441 43.5288 37.2025 44.4373 36.8824 45.0533C36.5625 45.6693 36.8672 45.0995 36.8367 45.1611C36.5625 45.6847 36.4101 45.9773 36.4101 45.9773V45.9928C36.1969 46.3778 35.9683 46.7472 35.8616 46.7472C35.7854 46.7472 35.633 45.7155 35.892 44.2989C36.4557 41.3267 37.8268 36.6916 37.8117 36.5222C37.8117 36.4452 38.0705 35.6289 36.928 35.2133C35.8159 34.7975 35.4199 35.4905 35.3284 35.4905C35.2369 35.4905 35.1608 35.7369 35.1608 35.7369C35.1608 35.7369 36.3948 30.5167 32.7994 30.5167C30.5448 30.5167 27.437 32.996 25.8983 35.2597C24.9233 35.7986 22.8514 36.938 20.6577 38.1547C19.8198 38.6167 18.9514 39.1095 18.1288 39.5561L17.9613 39.371C13.6043 34.6742 5.54535 31.3479 5.8805 25.0342C6.00238 22.7397 6.79456 16.6878 21.3588 9.35773C33.2873 3.35201 42.8392 4.99973 44.4996 8.66477C46.8609 13.9005 39.3961 23.6329 26.9955 25.0342C22.2728 25.5732 19.7895 23.7253 19.165 23.0323C18.5099 22.3085 18.4185 22.2777 18.1748 22.4163C17.7787 22.6319 18.0224 23.2787 18.1748 23.6637C18.5404 24.6338 20.0638 26.3586 22.6537 27.2209C24.9234 27.9755 30.4689 28.3913 37.172 25.7734C44.6826 22.8321 50.5478 14.6705 48.8263 7.8486C47.0743 0.903521 35.6791 -1.37558 24.9084 2.48965C18.4945 4.79954 11.5477 8.40298 6.55081 13.1306C0.609417 18.7359 -0.335113 23.6329 0.0609801 25.6656C1.44746 32.9187 11.3344 37.6462 15.2953 41.1419C15.0973 41.2495 14.9145 41.3573 14.7469 41.4499C12.7664 42.4353 5.22543 46.4238 3.33637 50.6431C1.20356 55.4169 3.67152 58.8511 5.31683 59.313C10.4051 60.7452 15.6153 58.1735 18.4336 53.9387C21.2366 49.7039 20.9016 44.2063 19.6067 41.6963L19.5608 41.6039L21.1147 40.6799C22.1203 40.0793 23.1106 39.525 23.9788 39.0474C23.4914 40.3872 23.1409 41.9733 22.9582 44.2832C22.7449 46.9936 23.8418 50.5045 25.2891 51.8904C25.9289 52.4909 26.6906 52.5064 27.1629 52.5064C28.8387 52.5064 29.6004 51.1049 30.4383 49.4265C31.4742 47.3784 32.3883 45.0069 32.3883 45.0069C32.3883 45.0069 31.2457 51.4285 34.3687 51.4285C35.5113 51.4285 36.6539 49.9347 37.1719 49.1648V49.1802C37.1719 49.1802 37.2023 49.134 37.2633 49.0262C37.3272 48.9306 37.3882 48.8331 37.4461 48.7337V48.7029C37.9031 47.9022 38.9238 46.0697 40.4472 43.036C42.4123 39.1246 44.3015 34.2276 44.3015 34.2276C44.3015 34.2276 44.4844 35.4287 45.048 37.3998C45.383 38.5704 46.1143 39.8483 46.6779 41.0957C46.2209 41.7425 45.9467 42.1122 45.9467 42.1122L45.9619 42.1276C45.5965 42.6204 45.185 43.1441 44.7586 43.6675C43.2047 45.5462 41.3461 47.6869 41.1023 48.3029C40.8129 49.0265 40.8738 49.5654 41.4375 49.9968C41.8488 50.3048 42.5801 50.3662 43.357 50.3048C44.7586 50.2122 45.7336 49.8582 46.2211 49.6424C46.9828 49.3653 47.8511 48.9495 48.689 48.3335C50.2125 47.1941 51.1418 45.5772 51.0504 43.4213C51.0047 42.2355 50.6238 41.0652 50.1515 39.9564C50.2886 39.7562 50.4259 39.5559 50.5629 39.3405C52.9699 35.7831 54.8285 31.8718 54.8285 31.8718C54.8285 31.8718 55.0113 33.073 55.575 35.0441C55.8643 36.045 56.4433 37.1385 56.9613 38.2165C54.7066 40.0798 53.2898 42.2357 52.8023 43.6524C51.9035 46.2703 52.6043 47.4561 53.9296 47.7332C54.5236 47.8564 55.3769 47.5793 56.0166 47.3021C56.8088 47.0403 57.7686 46.5935 58.6523 45.9315C60.1757 44.792 61.6382 43.2058 61.5621 41.0653C61.5164 40.0798 61.2574 39.1096 60.907 38.1857C62.8265 37.3849 65.3096 36.9229 68.4632 37.3079C75.2425 38.1087 76.5831 42.3897 76.3243 44.176C76.0653 45.9625 74.6485 46.9479 74.1761 47.2559C73.7038 47.5484 73.5515 47.6564 73.5972 47.8718C73.6581 48.1954 73.8714 48.1798 74.2827 48.1184C74.8464 48.0258 77.8476 46.6554 77.9695 43.3601C78.1523 39.1247 74.1761 34.5049 67.1226 34.551ZM14.8383 52.368C12.5989 54.8473 9.44534 55.7866 8.10472 54.9858C6.65745 54.1389 7.22097 50.4893 9.97854 47.856C11.6543 46.2544 13.8328 44.7761 15.2649 43.8676C15.5848 43.6674 16.0723 43.3749 16.6512 43.0206C16.7426 42.9592 16.8035 42.9282 16.8035 42.9282C16.9102 42.8666 17.032 42.7896 17.1539 42.7126C18.1746 46.47 17.1996 49.7655 14.8383 52.368ZM31.2152 41.1111C30.4383 43.036 28.793 47.9792 27.8027 47.702C26.9495 47.471 26.4316 43.729 27.635 40.0331C28.2444 38.1697 29.5393 35.9523 30.301 35.0898C31.5352 33.7039 32.8756 33.2419 33.2109 33.8117C33.607 34.551 31.7027 39.9099 31.2152 41.1111ZM44.7281 47.6404C44.3929 47.8099 44.0883 47.933 43.9511 47.8407C43.8445 47.7791 44.0881 47.5481 44.0881 47.5481C44.0881 47.5481 45.7791 45.7156 46.4494 44.8687C46.8303 44.376 47.2873 43.8063 47.7748 43.1593V43.3441C47.775 45.5615 45.6726 47.0398 44.7281 47.6404ZM55.1482 45.2381C54.9045 45.0533 54.9351 44.4835 55.7576 42.6972C56.0777 41.9888 56.8088 40.8031 58.0732 39.6789C58.2256 40.1409 58.3171 40.5874 58.3018 41.0033C58.2867 43.7752 56.3367 44.8069 55.1482 45.2381Z" fill="#CF649A"/>
</g>
<defs>
<clipPath id="clip0_319_71">
<rect width="78" height="59.1334" fill="white" transform="translate(0 0.580078)"/>
</clipPath>
</defs>
</svg>
