<svg width="78" height="47" viewBox="0 0 78 47" fill="none" xmlns="http://www.w3.org/2000/svg">
<path d="M38.9846 0C28.5884 0 22.0911 5.18646 19.4918 15.5584C23.3907 10.3719 27.939 8.42775 33.1366 9.72388C36.1025 10.4634 38.2221 12.611 40.5689 14.9872C44.3908 18.8581 48.8143 23.3381 58.4773 23.3381C68.8726 23.3381 75.3708 18.1516 77.9691 7.77872C74.0712 12.9652 69.5229 14.9103 64.3243 13.6142C61.3594 12.8747 59.2398 10.7271 56.893 8.35088C53.0711 4.48001 48.6466 0 38.9846 0V0ZM19.4918 23.3381C9.09656 23.3381 2.59832 28.5246 0 38.8975C3.89797 33.711 8.44625 31.7658 13.6448 33.063C16.6098 33.8035 18.7294 35.95 21.0761 38.3253C24.8981 42.1962 29.3225 46.6772 38.9846 46.6772C49.3808 46.6772 55.878 41.4907 58.4773 31.1178C54.5784 36.3042 50.0301 38.2494 44.8325 36.9523C41.8666 36.2137 39.747 34.0652 37.4002 31.6899C33.5783 27.8191 29.1548 23.3381 19.4918 23.3381V23.3381Z" fill="#06B6D4"/>
</svg>
