<svg width="30" height="30" viewBox="0 0 30 30" fill="none" xmlns="http://www.w3.org/2000/svg">
<path d="M25.4531 19.043C25.3359 18.7793 25.2129 18.6445 24.9492 18.5098C24.6914 18.3809 24.3281 18.3691 24.0645 18.4805C23.959 18.5273 22.2363 20.209 20.0098 22.4355C17.8828 24.5684 16.125 26.3086 16.1016 26.3086C16.0723 26.3086 16.0547 20.5781 16.0547 13.5762V0.84375L15.9258 0.585937C15.5332 -0.1875 14.4668 -0.1875 14.0801 0.585937L13.9453 0.84375V13.5762C13.9453 20.5781 13.9277 26.3086 13.9043 26.3086C13.8809 26.3086 12.1582 24.5859 10.0664 22.4766C7.35938 19.7402 6.19922 18.6094 6.01758 18.5215C5.70117 18.3691 5.33789 18.3633 5.05078 18.5098C4.78125 18.6445 4.6582 18.7793 4.54102 19.0605C4.42969 19.3301 4.42969 19.5762 4.54102 19.8516C4.66992 20.1504 14.2266 29.7188 14.5664 29.8828C14.8535 30.0234 15.1055 30.0293 15.3984 29.9121C15.6973 29.7832 25.2656 20.2266 25.4297 19.8867C25.5703 19.6055 25.5762 19.3242 25.4531 19.043Z" fill="black"/>
</svg>
