<svg width="39" height="31" viewBox="0 0 39 31" fill="none" xmlns="http://www.w3.org/2000/svg">
<g clip-path="url(#clip0_44_23)">
<path d="M38.1155 12.8883C37.1655 12.2455 34.6697 11.9714 32.8552 12.4624C32.7576 10.6453 31.8254 9.11385 30.12 7.77856L29.4892 7.35271L29.0684 7.99149C28.2419 9.25291 27.8934 10.9344 28.0163 12.463C28.1139 13.4048 28.4393 14.4631 29.0684 15.2311C26.7064 16.6085 24.5297 16.2957 14.8886 16.2957H0.00383933C-0.0397857 18.4845 0.310363 22.694 2.97321 26.1211C3.26711 26.4996 3.5897 26.8661 3.93985 27.2186C6.10503 29.3981 9.37633 30.9965 14.2681 31.0006C21.7302 31.0075 28.1242 26.952 32.0137 17.1475C33.2938 17.1688 36.6718 17.3777 38.325 14.1665C38.3652 14.1122 38.7457 13.3147 38.7457 13.3147L38.1155 12.8883ZM9.71787 10.6297H5.53216V14.8376H9.71787V10.6297ZM15.1257 10.6297H10.9399V14.8376H15.1257V10.6297ZM20.5334 10.6297H16.3477V14.8376H20.5334V10.6297ZM25.9412 10.6297H21.7555V14.8376H25.9412V10.6297ZM4.31124 10.6297H0.124382V14.8376H4.31009V10.6297H4.31124ZM9.71902 5.31458H5.53331V9.52239H9.71902V5.31458ZM15.1268 5.31458H10.9411V9.52239H15.1268V5.31458ZM20.5346 5.31458H16.3489V9.52239H20.5346V5.31458ZM20.5329 0H16.3472V4.20781H20.5329V0Z" fill="#1D63ED"/>
</g>
<defs>
<clipPath id="clip0_44_23">
<rect width="39" height="31.0006" fill="white"/>
</clipPath>
</defs>
</svg>
