<svg width="78" height="87" viewBox="0 0 78 87" fill="none" xmlns="http://www.w3.org/2000/svg">
<path d="M73.1163 42.4134C73.1163 37.9852 69.5263 34.3952 65.0982 34.3952C64.8131 34.3952 64.5323 34.4105 64.2552 34.4398L75.2681 1.95825H28.4669L39.4646 34.4114C39.3023 34.4012 39.1397 34.3959 38.9771 34.3955C34.549 34.3955 30.959 37.9849 30.959 42.4137C30.959 45.993 33.3049 49.0235 36.5424 50.0545C34.8325 53.0164 32.6807 55.6843 30.2378 57.9893C26.9157 61.123 23.1139 63.4995 19.002 64.9636C14.1063 62.4486 11.7945 56.8555 13.8804 51.9515C14.116 51.3975 14.3565 50.8362 14.5864 50.2773C18.133 49.4496 20.7762 46.2701 20.7762 42.471C20.7762 38.0426 17.1862 34.4529 12.7578 34.4529C8.32936 34.4529 4.73967 38.0426 4.73967 42.471C4.73967 45.1866 6.09057 47.5853 8.15599 49.0357C6.17145 53.5542 3.25416 58.2833 2.34521 63.7641C1.25588 70.3324 2.34155 77.3049 8.02261 81.2425C21.2533 90.4126 35.6151 75.5578 50.7577 71.8234C56.2456 70.4704 62.2697 70.6883 67.1047 67.8882C70.7356 65.7853 73.1294 62.3 73.8085 58.3874C74.48 54.522 73.5015 50.6735 71.2514 47.5529C72.4586 46.1126 73.1189 44.2926 73.1163 42.4134" fill="#99425B"/>
<path d="M71.8794 58.0523C71.2897 61.4494 69.1917 64.4164 66.1236 66.1937C63.2634 67.8501 59.836 68.3446 56.207 68.8677C54.263 69.1479 52.2528 69.4382 50.2891 69.9223C45.0967 71.2027 40.0672 73.7009 35.2039 76.1167C25.4704 80.9514 17.0646 85.1262 9.13868 79.6329C3.33278 75.6091 3.60076 68.1642 4.27713 64.0846C4.90405 60.3048 6.59894 56.8237 8.23767 53.4575C8.51685 52.8854 8.79379 52.3122 9.06848 51.7379C9.89454 52.0681 10.7613 52.2855 11.6454 52.3843C9.97711 57.8902 12.6008 63.8768 18.1073 66.7056L18.8612 67.0929L19.659 66.8087C24.0124 65.2582 28.0239 62.7707 31.5818 59.4135C33.8816 57.2437 35.8592 54.8432 37.4845 52.2781C37.9786 52.3526 38.4776 52.3901 38.9773 52.3901C44.0314 52.3901 48.2166 48.6118 48.8643 43.7319C50.9331 43.6562 53.1304 43.6556 55.211 43.7313C55.8581 48.6118 60.0439 52.3904 65.098 52.3904C67.2114 52.3904 69.1715 51.7281 70.7864 50.6031C71.9075 52.898 72.326 55.4802 71.8794 58.0523V58.0523ZM12.7583 36.4112C16.0998 36.4112 18.8181 39.1298 18.8181 42.4714C18.8181 43.6715 18.4659 44.7908 17.8613 45.7333C16.854 47.3042 15.1417 48.3811 13.1746 48.5153C13.0369 48.5245 12.8981 48.5312 12.7583 48.5312C12.0135 48.5312 11.3002 48.3954 10.6407 48.1488C9.31229 47.6493 8.1999 46.7018 7.49537 45.4699C6.97222 44.5572 6.69735 43.5234 6.69814 42.4714C6.69814 39.1298 9.41673 36.4112 12.7583 36.4112V36.4112ZM32.9178 42.4137C32.9178 39.3777 35.162 36.8569 38.0781 36.421C38.3717 36.3767 38.6721 36.3539 38.9776 36.3539C40.9203 36.3539 42.65 37.2741 43.7592 38.7001C44.037 39.0556 44.2743 39.4411 44.4667 39.8492C44.8434 40.6516 45.0383 41.5273 45.0374 42.4137C45.0374 42.8981 44.9788 43.369 44.8711 43.8208C44.2805 46.293 42.1723 48.183 39.589 48.443C39.3881 48.4632 39.1842 48.4735 38.9776 48.4735C37.812 48.4745 36.6712 48.1372 35.6934 47.5026C34.0251 46.4218 32.9178 44.545 32.9178 42.4137V42.4137ZM58.2098 35.2074C56.8911 36.4662 55.9421 38.0618 55.4656 39.8215C53.1815 39.7373 50.8951 39.7373 48.611 39.8215C48.0982 37.9193 47.0354 36.2412 45.6055 34.9666L51.8762 22.2872L58.2098 35.2074ZM31.1985 3.91719H72.5366L62.7729 32.7132C62.3528 32.8138 61.9398 32.9418 61.5364 33.0962L51.8915 13.4208L42.219 32.9787C41.7974 32.834 41.3665 32.7179 40.9292 32.6311L31.1985 3.91719ZM71.1579 42.414C71.1579 43.0214 71.0672 43.608 70.9003 44.162C70.5042 45.4662 69.6816 46.5996 68.5644 47.3805C67.5491 48.0931 66.3385 48.4749 65.098 48.4738C62.3001 48.4738 59.9398 46.5671 59.2457 43.985C59.1079 43.4727 59.0381 42.9445 59.0382 42.414C59.0382 41.5856 59.2055 40.7957 59.5076 40.076C59.6636 39.7078 59.8556 39.3559 60.0808 39.0254C61.1714 37.4157 63.0116 36.3542 65.098 36.3542C65.2894 36.3542 65.478 36.3639 65.6651 36.3816C68.7418 36.6682 71.1582 39.2635 71.1582 42.414H71.1579ZM75.0748 42.414C75.0748 37.5433 71.5653 33.4793 66.9431 32.6112L78 0H25.7356L36.8096 32.6772C32.3479 33.6701 29.0012 37.6571 29.0012 42.4137C29.0012 45.9854 30.8887 49.1224 33.7174 50.8854C32.3568 52.9127 30.7434 54.8203 28.8944 56.5649C25.9618 59.3311 22.695 61.4292 19.1731 62.8097C15.6255 60.5813 14.126 56.3787 15.6832 52.7179L15.8053 52.431L16.0342 51.8926C19.9306 50.5335 22.7347 46.825 22.7347 42.4714C22.7347 36.9701 18.2593 32.4946 12.7583 32.4946C7.2573 32.4946 2.78125 36.9701 2.78125 42.4714C2.78125 45.248 3.92277 47.7624 5.75958 49.5729C5.417 50.2988 5.06925 51.0222 4.71634 51.7431C3.03671 55.1923 1.13336 59.1019 0.413348 63.4437C-1.0163 72.0661 1.28994 78.9589 6.90752 82.852C10.3162 85.2144 13.778 86.1435 17.2615 86.1435C23.8207 86.1435 30.4562 82.848 36.9461 79.6243C41.6199 77.3031 46.4531 74.9025 51.227 73.725C53.0034 73.287 54.831 73.0233 56.7661 72.7443C60.6037 72.1907 64.5715 71.6184 68.0864 69.5829C72.1608 67.2229 74.9496 63.2642 75.7383 58.7225C76.4153 54.8233 75.6007 50.918 73.6137 47.6058C74.5711 46.0433 75.0768 44.2462 75.0748 42.4137V42.414Z" fill="white"/>
</svg>
