<svg width="43" height="44" viewBox="0 0 43 44" fill="none" xmlns="http://www.w3.org/2000/svg">
<g clip-path="url(#clip0_44_8)">
<rect width="43" height="43" rx="21.5" transform="matrix(1 0 0 -1 0 43.5)" fill="white"/>
<path d="M20.0935 43.4665C20.0714 43.4645 20.0378 43.4613 19.9959 43.4573C19.8623 43.4445 19.644 43.4237 19.4427 43.4077C13.3418 42.8576 7.62724 39.5658 4.00786 34.5062C1.99243 31.693 0.7034 28.5019 0.216339 25.1219C0.0441874 23.942 0.0231934 23.5935 0.0231934 21.9938C0.0231934 20.394 0.0441874 20.0455 0.216339 18.8656C1.38361 10.7997 7.12338 4.02286 14.908 1.51197C16.302 1.0627 17.7716 0.756184 19.4427 0.571438C20.0935 0.500057 22.9067 0.500057 23.5575 0.571438C26.4421 0.890545 28.8858 1.60434 31.2959 2.83459C31.6654 3.02354 31.7368 3.07393 31.6864 3.11592C31.6528 3.14111 30.0783 5.25311 28.1888 7.80598L24.7542 12.4457L20.4504 18.8153C18.0823 22.3171 16.134 25.1807 16.1172 25.1807C16.1004 25.1849 16.0836 22.3549 16.0752 18.8992C16.0626 12.8488 16.0584 12.6052 15.9829 12.4625C15.8737 12.2567 15.7897 12.1727 15.6134 12.0804C15.479 12.0132 15.3614 12.0006 14.7274 12.0006H14.001L13.8079 12.1224C13.6819 12.2021 13.5895 12.3071 13.5266 12.4289L13.4384 12.6178L13.4468 21.0364L13.4594 29.4592L13.5895 29.623C13.6567 29.7112 13.7995 29.8245 13.9003 29.8791C14.0724 29.9631 14.1396 29.9715 14.866 29.9715C15.7225 29.9715 15.8653 29.9379 16.0878 29.6944C16.1508 29.6272 18.4812 26.117 21.2692 21.8888C24.0572 17.6606 27.8697 11.8872 29.7424 9.05303L33.1434 3.90109L33.3155 4.01446C34.8397 5.00538 36.4521 6.41618 37.7285 7.88576C40.4451 11.0055 42.196 14.8096 42.7839 18.8656C42.956 20.0455 42.977 20.394 42.977 21.9938C42.977 23.5935 42.956 23.942 42.7839 25.1219C41.6166 33.1878 35.8768 39.9647 28.0922 42.4755C26.7192 42.9206 25.258 43.2271 23.6205 43.4119C23.2174 43.4539 20.442 43.5001 20.0935 43.4665ZM28.8858 30.4754C29.0873 30.3746 29.2511 30.1814 29.3099 29.9799C29.3435 29.8707 29.3519 27.5362 29.3435 22.2751L29.3309 14.7256L27.9999 16.7662L26.6646 18.8069V24.2947C26.6646 27.8427 26.6814 29.8371 26.7066 29.9337C26.7738 30.1688 26.9208 30.3536 27.1223 30.4628C27.2945 30.5509 27.3574 30.5593 28.0167 30.5593C28.6381 30.5593 28.7472 30.5509 28.8858 30.4754Z" fill="black"/>
<path d="M20.0935 43.4665C20.0714 43.4645 20.0378 43.4613 19.9959 43.4573C19.8623 43.4445 19.644 43.4237 19.4427 43.4077C13.3418 42.8576 7.62724 39.5658 4.00786 34.5062C1.99243 31.693 0.7034 28.5019 0.216339 25.1219C0.0441874 23.942 0.0231934 23.5935 0.0231934 21.9938C0.0231934 20.394 0.0441874 20.0455 0.216339 18.8656C1.38361 10.7997 7.12338 4.02286 14.908 1.51197C16.302 1.0627 17.7716 0.756184 19.4427 0.571438C20.0935 0.500057 22.9067 0.500057 23.5575 0.571438C26.4421 0.890545 28.8858 1.60434 31.2959 2.83459C31.6654 3.02354 31.7368 3.07393 31.6864 3.11592C31.6528 3.14111 30.0783 5.25311 28.1888 7.80598L24.7542 12.4457L20.4504 18.8153C18.0823 22.3171 16.134 25.1807 16.1172 25.1807C16.1004 25.1849 16.0836 22.3549 16.0752 18.8992C16.0626 12.8488 16.0584 12.6052 15.9829 12.4625C15.8737 12.2567 15.7897 12.1727 15.6134 12.0804C15.479 12.0132 15.3614 12.0006 14.7274 12.0006H14.001L13.8079 12.1224C13.6819 12.2021 13.5895 12.3071 13.5266 12.4289L13.4384 12.6178L13.4468 21.0364L13.4594 29.4592L13.5895 29.623C13.6567 29.7112 13.7995 29.8245 13.9003 29.8791C14.0724 29.9631 14.1396 29.9715 14.866 29.9715C15.7225 29.9715 15.8653 29.9379 16.0878 29.6944C16.1508 29.6272 18.4812 26.117 21.2692 21.8888C24.0572 17.6606 27.8697 11.8872 29.7424 9.05303L33.1434 3.90109L33.3155 4.01446C34.8397 5.00538 36.4521 6.41618 37.7285 7.88576C40.4451 11.0055 42.196 14.8096 42.7839 18.8656C42.956 20.0455 42.977 20.394 42.977 21.9938C42.977 23.5935 42.956 23.942 42.7839 25.1219C41.6166 33.1878 35.8768 39.9647 28.0922 42.4755C26.7192 42.9206 25.258 43.2271 23.6205 43.4119C23.2174 43.4539 20.442 43.5001 20.0935 43.4665ZM28.8858 30.4754C29.0873 30.3746 29.2511 30.1814 29.3099 29.9799C29.3435 29.8707 29.3519 27.5362 29.3435 22.2751L29.3309 14.7256L27.9999 16.7662L26.6646 18.8069V24.2947C26.6646 27.8427 26.6814 29.8371 26.7066 29.9337C26.7738 30.1688 26.9208 30.3536 27.1223 30.4628C27.2945 30.5509 27.3574 30.5593 28.0167 30.5593C28.6381 30.5593 28.7472 30.5509 28.8858 30.4754Z" stroke="white"/>
<path d="M32.9333 3.80855C32.7864 3.71618 32.7402 3.6532 32.8703 3.72458C32.9627 3.77916 33.1139 3.89253 33.0887 3.89673C33.0761 3.89673 33.0047 3.85474 32.9333 3.80855ZM32.6436 3.61961C32.568 3.56082 32.568 3.55663 32.6604 3.60281C32.7108 3.628 32.7528 3.6574 32.7528 3.66579C32.7528 3.69938 32.7318 3.69099 32.6436 3.61961ZM32.4337 3.49364C32.3581 3.43486 32.3581 3.43066 32.4505 3.47685C32.5008 3.50204 32.5428 3.53143 32.5428 3.53983C32.5428 3.57342 32.5218 3.56502 32.4337 3.49364ZM32.2237 3.36768C32.1481 3.3089 32.1481 3.3047 32.2405 3.35088C32.2909 3.37608 32.3329 3.40547 32.3329 3.41387C32.3329 3.44746 32.3119 3.43906 32.2237 3.36768ZM31.9046 3.19973C31.7451 3.11575 31.7535 3.08216 31.913 3.16194C31.9844 3.19973 32.039 3.23752 32.039 3.24591C32.039 3.2753 32.0348 3.27111 31.9046 3.19973Z" fill="black"/>
</g>
<rect x="0.25" y="-0.25" width="42.5" height="42.5" rx="21.25" transform="matrix(1 0 0 -1 0 43)" stroke="white" stroke-width="0.5"/>
<defs>
<clipPath id="clip0_44_8">
<rect width="43" height="43" rx="21.5" transform="matrix(1 0 0 -1 0 43.5)" fill="white"/>
</clipPath>
</defs>
</svg>
