<svg width="40" height="46" viewBox="0 0 40 46" fill="none" xmlns="http://www.w3.org/2000/svg">
<path d="M20.0014 45.6766C19.3795 45.6766 18.8 45.5099 18.2618 45.2182L12.7544 41.9267C11.9256 41.4682 12.3404 41.3016 12.5888 41.2183C13.7065 40.8432 13.9135 40.7598 15.0726 40.0934C15.1976 40.01 15.3632 40.0517 15.4865 40.135L19.7107 42.6766C19.8763 42.76 20.0823 42.76 20.2074 42.6766L36.7297 33.0517C36.8944 32.9683 36.979 32.8017 36.979 32.5935V13.3854C36.979 13.1771 36.8944 13.0106 36.7297 12.9271L20.2074 3.3441C20.0419 3.26068 19.834 3.26068 19.7107 3.3441L3.18837 12.9271C3.02279 13.0106 2.94 13.2187 2.94 13.3854V32.5935C2.94 32.7602 3.02279 32.9683 3.18837 33.0517L7.70141 35.6768C10.1447 36.9266 11.6772 35.4684 11.6772 34.01V15.0521C11.6772 14.8022 11.8842 14.5522 12.1749 14.5522H14.2869C14.5353 14.5522 14.7837 14.7604 14.7837 15.0521V34.01C14.7837 37.3018 13.0028 39.2183 9.89628 39.2183C8.94508 39.2183 8.19995 39.2183 6.08697 38.1768L1.73952 35.6768C0.663231 35.0517 0 33.8852 0 32.635V13.4271C0 12.1771 0.663231 11.0105 1.73952 10.3854L18.2618 0.760732C19.2967 0.177412 20.7042 0.177412 21.74 0.760732L38.2614 10.3854C39.3377 11.0105 40 12.1771 40 13.4271V32.635C40 33.8852 39.3377 35.0517 38.2614 35.6768L21.74 45.3015C21.2432 45.5099 20.6214 45.6766 20.0014 45.6766Z" fill="#5FA04E"/>
<path d="M25.1353 32.468C17.8884 32.468 16.3972 29.1348 16.3972 26.3015C16.3972 26.0515 16.6042 25.8014 16.894 25.8014H19.0475C19.2967 25.8014 19.5028 25.9683 19.5028 26.2182C19.834 28.4264 20.787 29.5099 25.1767 29.5099C28.6549 29.5099 30.146 28.7181 30.146 26.8432C30.146 25.7599 29.7303 24.9683 24.3065 24.4265C19.7935 23.968 16.9768 22.9681 16.9768 19.3431C16.9768 15.9684 19.7935 13.9683 24.5135 13.9683C29.8149 13.9683 32.4228 15.8016 32.754 19.8016C32.754 19.9266 32.7135 20.0515 32.6316 20.1766C32.5461 20.2599 32.4228 20.3433 32.2968 20.3433H30.1028C29.8976 20.3433 29.6898 20.1766 29.6484 19.9682C29.1507 17.6766 27.8666 16.9267 24.4721 16.9267C20.6619 16.9267 20.2074 18.2599 20.2074 19.2599C20.2074 20.4681 20.7447 20.8433 25.8795 21.5098C30.973 22.1764 33.3758 23.1348 33.3758 26.7181C33.3758 30.3847 30.3521 32.468 25.1353 32.468Z" fill="#5FA04E"/>
</svg>
