<svg width="40" height="27" viewBox="0 0 40 27" fill="none" xmlns="http://www.w3.org/2000/svg">
<path d="M22.1887 26.4151H36.8491C37.3169 26.4151 37.7646 26.2508 38.1698 26.0189C38.575 25.7869 38.9926 25.496 39.2264 25.0943C39.4602 24.6927 39.6229 24.2372 39.6226 23.7735C39.6224 23.3097 39.4606 22.8543 39.2264 22.453L29.3208 5.41509C29.087 5.01358 28.8013 4.72238 28.3962 4.49057C27.9912 4.25875 27.4112 4.09434 26.9434 4.09434C26.4756 4.09434 26.0277 4.25875 25.6226 4.49057C25.2176 4.72238 24.9319 5.01358 24.6981 5.41509L22.1887 9.77359L17.1698 1.32044C16.9358 0.91896 16.6505 0.495932 16.2453 0.264151C15.8401 0.03237 15.3923 0 14.9245 0C14.4567 0 14.009 0.03237 13.6038 0.264151C13.1986 0.495932 12.7812 0.91896 12.5472 1.32044L0.264152 22.453C0.0299791 22.8543 0.000204561 23.3097 1.00484e-06 23.7735C-0.000202551 24.2372 0.0303316 24.6927 0.264152 25.0943C0.497972 25.4958 0.915607 25.7869 1.32076 26.0189C1.7259 26.2508 2.17367 26.4151 2.64151 26.4151H11.8868C15.5502 26.4151 18.2165 24.7718 20.0755 21.6604L24.566 13.8679L26.9434 9.77359L34.2075 22.1887H24.566L22.1887 26.4151ZM11.7547 22.1887H5.28302L14.9245 5.54717L19.8113 13.8679L16.5743 19.5109C15.3398 21.5296 13.9324 22.1887 11.7547 22.1887Z" fill="#00DC82"/>
</svg>
