<svg width="60" height="30" viewBox="0 0 60 30" fill="none" xmlns="http://www.w3.org/2000/svg">
<rect width="60" height="30" fill="black"/>
<path d="M11.4375 26H5.37784V6.36364H11.706C13.6108 6.36364 15.2408 6.75675 16.5959 7.54297C17.951 8.3228 18.9897 9.4446 19.712 10.9084C20.4343 12.3658 20.7955 14.1108 20.7955 16.1435C20.7955 18.1889 20.4311 19.9499 19.7024 21.4265C18.9737 22.8967 17.9126 24.0281 16.5192 24.8207C15.1257 25.6069 13.4318 26 11.4375 26ZM7.75568 23.8906H11.2841C12.9077 23.8906 14.2532 23.5774 15.3207 22.951C16.3881 22.3246 17.1839 21.4329 17.7081 20.2759C18.2322 19.119 18.4943 17.7415 18.4943 16.1435C18.4943 14.5582 18.2354 13.1935 17.7177 12.0494C17.1999 10.8988 16.4265 10.0167 15.3974 9.40305C14.3683 8.78302 13.0866 8.47301 11.5526 8.47301H7.75568V23.8906ZM24.7841 26V6.36364H36.6349V8.47301H27.1619V15.108H36.0213V17.2173H27.1619V23.8906H36.7884V26H24.7841ZM41.7262 6.36364L47.5558 22.8935H47.7859L53.6154 6.36364H56.1083L48.8981 26H46.4435L39.2333 6.36364H41.7262Z" fill="white"/>
</svg>
