<svg width="46" height="34" viewBox="0 0 46 34" fill="none" xmlns="http://www.w3.org/2000/svg">
<path d="M42.2421 33.9999H3.01666C2.27357 33.9999 1.56092 33.7049 1.03548 33.1796C0.510034 32.6544 0.214844 31.942 0.214844 31.1992V3.1923C0.214844 2.44951 0.510034 1.73714 1.03548 1.21191C1.56092 0.686673 2.27357 0.391602 3.01666 0.391602H42.2421C42.9851 0.391602 43.6978 0.686673 44.2232 1.21191C44.7487 1.73714 45.0439 2.44951 45.0439 3.1923V31.1992C45.0439 31.942 44.7487 32.6544 44.2232 33.1796C43.6978 33.7049 42.9851 33.9999 42.2421 33.9999V33.9999Z" fill="#EAEAEA"/>
<path d="M5.81847 33.9999H3.01666C2.27357 33.9999 1.56092 33.7049 1.03548 33.1796C0.510034 32.6544 0.214844 31.942 0.214844 31.1992V3.1923C0.214844 2.8245 0.287315 2.46031 0.428119 2.12052C0.568923 1.78072 0.775303 1.47197 1.03548 1.21191C1.29565 0.951837 1.60452 0.745539 1.94445 0.604791C2.28438 0.464043 2.64872 0.391602 3.01666 0.391602C3.3846 0.391602 3.74893 0.464043 4.08887 0.604791C4.4288 0.745539 4.73767 0.951837 4.99784 1.21191C5.25801 1.47197 5.46439 1.78072 5.6052 2.12052C5.746 2.46031 5.81847 2.8245 5.81847 3.1923V33.9999Z" fill="black"/>
<path d="M39.4404 33.9999H42.2422C42.9853 33.9999 43.698 33.7049 44.2234 33.1796C44.7489 32.6544 45.0441 31.942 45.0441 31.1992V3.1923C45.0441 2.44951 44.7489 1.73714 44.2234 1.21191C43.698 0.686673 42.9853 0.391602 42.2422 0.391602C41.4992 0.391602 40.7865 0.686673 40.2611 1.21191C39.7356 1.73714 39.4404 2.44951 39.4404 3.1923V33.9999Z" fill="black"/>
<path d="M43.8461 5.48887C44.1478 5.27825 44.405 5.01029 44.6032 4.70029C44.8013 4.39028 44.9364 4.04431 45.0007 3.68212C45.065 3.31993 45.0574 2.94862 44.9782 2.58939C44.899 2.23015 44.7498 1.89003 44.5391 1.58844C44.3284 1.28685 44.0603 1.0297 43.7502 0.831669C43.44 0.633638 43.0939 0.498606 42.7316 0.434282C42.3693 0.369959 41.9978 0.377603 41.6384 0.45678C41.279 0.535956 40.9388 0.685114 40.6371 0.895736L22.6307 14.0002L22.6289 14.0011L22.627 14.0002L4.62069 0.895736C4.01135 0.470365 3.25793 0.304375 2.52617 0.434282C1.7944 0.56419 1.14423 0.979353 0.718692 1.58844C0.293151 2.19753 0.127094 2.95065 0.257054 3.68212C0.387013 4.41359 0.802342 5.0635 1.41167 5.48887L1.33696 5.43379L22.6289 20.93L43.8461 5.48887ZM43.9217 5.43379L22.6289 20.93Z" fill="black"/>
<path d="M42.242 0.391605C41.6452 0.391605 41.0914 0.578318 40.6375 0.89573L22.6312 14.0002L22.6293 14.0011L22.6274 14.0002L4.62111 0.89573C4.15086 0.566745 3.59057 0.390706 3.0166 0.391605H42.242Z" fill="#EFEFEF"/>
<path d="M5.81956 9.90283L1.09757 5.22754L1.0957 5.23127C1.1947 5.32463 1.30024 5.41052 1.41231 5.48894L1.33759 5.43386L5.8205 8.69666L5.81956 9.93644" fill="black"/>
<path d="M19.5174 23.349L5.81836 34L5.81929 9.78613L19.5146 23.3452" fill="#E3E3E3"/>
<path d="M19.5174 23.3491L22.6293 20.9302L5.81934 8.69678V9.78625L19.5146 23.3453L19.5174 23.3491Z" fill="url(#paint0_linear_0_1)"/>
<path d="M30.1578 34.0001H39.4402V8.6958L22.6293 20.9302L19.5146 23.3453L30.1578 34.0001Z" fill="url(#paint1_linear_0_1)"/>
<defs>
<linearGradient id="paint0_linear_0_1" x1="5.81934" y1="16.0234" x2="22.6293" y2="16.0234" gradientUnits="userSpaceOnUse">
<stop stop-color="#C8C8C8"/>
<stop offset="1" stop-color="#CDCDCD"/>
</linearGradient>
<linearGradient id="paint1_linear_0_1" x1="19.5146" y1="21.3475" x2="39.4402" y2="21.3475" gradientUnits="userSpaceOnUse">
<stop stop-color="white"/>
<stop offset="1" stop-color="#E2E2E2"/>
</linearGradient>
</defs>
</svg>
