<svg width="44" height="44" viewBox="0 0 44 44" fill="none" xmlns="http://www.w3.org/2000/svg">
<path d="M0 3.22713C0 1.49437 1.45647 0.0878906 3.25188 0.0878906H40.7481C42.5442 0.0878906 44 1.49437 44 3.22713V40.7732C44 42.5064 42.5442 43.9119 40.7481 43.9119H3.25188C1.45664 43.9119 0 42.5066 0 40.7737V3.22661V3.22713Z" fill="black"/>
<path d="M13.3707 36.7628V17.0331H6.78653V36.7628H13.3714H13.3707ZM10.08 14.3398C12.3756 14.3398 13.8047 12.8247 13.8047 10.9314C13.7617 8.99494 12.3756 7.52222 10.1237 7.52222C7.8702 7.52222 6.39844 8.99494 6.39844 10.9312C6.39844 12.8246 7.82706 14.3396 10.0369 14.3396H10.0795L10.08 14.3398ZM17.0152 36.7628H23.5988V25.746C23.5988 25.1571 23.6418 24.5667 23.8157 24.1461C24.2915 22.9674 25.3748 21.7474 27.1941 21.7474C29.576 21.7474 30.5293 23.5565 30.5293 26.209V36.7628H37.1128V25.4503C37.1128 19.3905 33.8651 16.5705 29.5333 16.5705C25.9819 16.5705 24.4221 18.5475 23.5555 19.8941H23.5993V17.0337H17.0155C17.1014 18.8846 17.015 36.7634 17.015 36.7634L17.0152 36.7628Z" fill="white"/>
</svg>
